<?xml version="1.0" encoding="UTF-8" standalone="no"?>
<!-- Created with Inkscape (http://www.inkscape.org/) -->

<svg
   version="1.1"
   id="svg2"
   width="3333.3333"
   height="3333.3333"
   viewBox="0 0 3333.3333 3333.3333"
   sodipodi:docname="24122175_bwink_msc_05_single_03.eps"
   xmlns:inkscape="http://www.inkscape.org/namespaces/inkscape"
   xmlns:sodipodi="http://sodipodi.sourceforge.net/DTD/sodipodi-0.dtd"
   xmlns="http://www.w3.org/2000/svg"
   xmlns:svg="http://www.w3.org/2000/svg">
  <defs
     id="defs6" />
  <sodipodi:namedview
     id="namedview4"
     pagecolor="#ffffff"
     bordercolor="currentColor"
     borderopacity="0.25"
     inkscape:showpageshadow="2"
     inkscape:pageopacity="0.0"
     inkscape:pagecheckerboard="0"
     inkscape:deskcolor="#d1d1d1" />
  <g
     id="g8"
     inkscape:groupmode="layer"
     inkscape:label="ink_ext_XXXXXX"
     transform="matrix(1.3333333,0,0,-1.3333333,0,3333.3333)">
    <g
       id="g10"
       transform="scale(0.1)">
      <path
         d="M 25000,0 H 0 V 25000 H 25000 V 0"
         style="fill:#ffffff;fill-opacity:0;fill-rule:nonzero;stroke:none"
         id="path12" />
      <path
         d="m 18235.6,15167 c 1595.6,253.7 2758.5,-666.7 2918.2,-3551.8 118.8,-2147.3 -1000.8,-4266.6 -2790.1,-5257.3 -2377.4,-1316.2 -5921.6,-907.1 -7089,1231.7 -696.6,1276.2 -601,3267.5 368,4067.5 971.4,801.9 2055.2,-566.3 3825.6,195.4 1968.4,846.9 1480.4,3109.9 2767.3,3314.5"
         style="fill:#ffffff;fill-opacity:0;fill-rule:nonzero;stroke:none"
         id="path14" />
      <path
         d="m 12382.9,11895.9 c -254.7,0 -494.8,-65 -726.1,-255.9 -447.6,-369.5 -739.4,-1040.1 -800.6,-1839.8 -59.6,-779 100,-1580.9 438,-2200 448.7,-822.2 1263.3,-1424.5 2355.8,-1742 1523.2,-442.6 3325.3,-243.6 4702.9,519.1 1780.9,986 2897.5,3090.4 2778.8,5236.6 -85.9,1550 -468.4,2609.5 -1137.2,3149.1 -454.3,366.6 -1045,495.1 -1755.4,382.1 l -3.5,21.9 3.5,-21.9 c -582.8,-92.6 -798.4,-627.7 -1048.1,-1247.3 -303.5,-753.2 -647.5,-1606.8 -1714,-2065.7 -922.1,-396.7 -1648.2,-222.5 -2288.8,-68.8 -286.1,68.7 -552.8,132.6 -805.3,132.6 z m 2950.7,-6314.2 c -579.7,0 -1155.2,76.9 -1696,234 -1104,320.8 -1927.8,930.5 -2382.3,1763.3 -342,626.4 -503.5,1437.3 -443.3,2224.6 62.1,811.6 359.7,1493.4 816.6,1870.6 477.6,394.2 983.8,272.8 1570,132.2 633.9,-152.1 1352.4,-324.5 2260.9,66.4 1049.7,451.7 1390.1,1296.3 1690.4,2041.6 254.7,632 474.7,1177.9 1082.2,1274.5 723.5,115 1325.8,-16.7 1790.2,-391.4 678.9,-547.8 1067.1,-1618.1 1153.6,-3181.1 119.7,-2162.8 -1006.1,-4283.9 -2801.5,-5277.9 -898.4,-497.4 -1976.3,-756.7 -3040.8,-756.8"
         style="fill:currentColor;fill-opacity:1;fill-rule:nonzero;stroke:none"
         id="path16" />
      <path
         d="m 18202.8,9035.9 c -8.8,0 -17.1,5.3 -20.6,14 -230.6,578.2 -1006.4,691.2 -1014.2,692.3 -12.1,1.6 -20.6,12.8 -18.9,24.9 1.6,12.1 12.8,20.6 24.9,19 8.1,-1.1 809.1,-117.4 1049.3,-719.8 4.6,-11.4 -1,-24.3 -12.3,-28.8 -2.7,-1.1 -5.5,-1.6 -8.2,-1.6"
         style="fill:currentColor;fill-opacity:1;fill-rule:nonzero;stroke:none"
         id="path18" />
      <path
         d="m 17112.5,8665.8 c -0.8,0 -1.6,0.1 -2.3,0.2 -12.2,1.2 -21,12.1 -19.8,24.3 57.5,561.6 -259.6,930.5 -262.8,934.2 -8.1,9.2 -7.1,23.2 2.1,31.3 9.1,8 23.2,7.1 31.2,-2.1 3.4,-3.8 333,-387.4 273.6,-968 -1.2,-11.4 -10.8,-19.9 -22,-19.9"
         style="fill:currentColor;fill-opacity:1;fill-rule:nonzero;stroke:none"
         id="path20" />
      <path
         d="m 13855.1,6544 c -50.1,50.7 -339.7,951.7 -339.7,951.7 l -572.4,-408.4 627.5,-843.3 284.6,300"
         style="fill:#ffffff;fill-opacity:0;fill-rule:nonzero;stroke:none"
         id="path22" />
      <path
         d="m 12974.3,7082.4 598.3,-804.1 254.6,268.4 c -65.8,121 -263.3,726.5 -323.6,913.3 z m 596.2,-860.5 c -0.4,0 -0.9,0 -1.3,0 -6.5,0.4 -12.6,3.6 -16.5,8.9 l -627.4,843.3 c -3.6,4.8 -5,10.8 -4.1,16.6 0.9,5.9 4.1,11.2 9,14.6 l 572.3,408.4 c 5.8,4.1 13.1,5.2 19.8,3 6.7,-2.2 12,-7.5 14.2,-14.2 110.6,-344.3 299.3,-904.7 334.5,-943 7.8,-8.6 8.2,-22.4 0.2,-30.8 l -284.6,-299.9 c -4.2,-4.5 -10,-6.9 -16.1,-6.9"
         style="fill:currentColor;fill-opacity:1;fill-rule:nonzero;stroke:none"
         id="path24" />
      <path
         d="m 12823.7,5404.7 380.7,2.3 c 251.8,1.5 486,129.4 623.3,340.5 l 376.4,595.8 c 104,164.7 45.8,382.9 -126.2,474.3 -157.1,83.5 -321.6,164.8 -360.2,161.1 -78.3,-7.4 -109.9,-377.9 -109.9,-377.9 l -339.1,-13 c 0,0 -167.6,-696.6 -314.9,-775.8 -107.4,-57.7 -182.4,-142.4 -232.8,-219.7 -52.8,-81 6.1,-188.2 102.7,-187.6"
         style="fill:currentColor;fill-opacity:1;fill-rule:nonzero;stroke:none"
         id="path26" />
      <path
         d="m 12862,5531.2 c -10.7,0 -20.2,7.9 -21.9,18.8 -1.8,12.1 6.5,23.4 18.6,25.2 l 520.6,78.4 c 110.7,16.7 207.1,81.3 264.6,177.3 l 460,768.6 c 6.3,10.5 19.9,13.9 30.4,7.6 10.5,-6.3 13.9,-19.9 7.6,-30.4 l -460,-768.5 c -64.3,-107.4 -172.2,-179.7 -296,-198.4 l -520.5,-78.4 c -1.2,-0.1 -2.3,-0.2 -3.4,-0.2"
         style="fill:#ffffff;fill-opacity:0;fill-rule:nonzero;stroke:none"
         id="path28" />
      <path
         d="m 13504.7,6109.1 c -2,0 -3.9,0.3 -5.9,0.8 l -290,79 c -11.8,3.2 -18.8,15.4 -15.6,27.2 3.2,11.8 15.4,18.8 27.2,15.6 l 290.1,-79 c 11.8,-3.2 18.7,-15.4 15.5,-27.2 -2.7,-9.9 -11.6,-16.4 -21.3,-16.4"
         style="fill:#ffffff;fill-opacity:0;fill-rule:nonzero;stroke:none"
         id="path30" />
      <path
         d="m 13353.6,5960.2 c -1.8,0 -3.5,0.2 -5.3,0.6 l -194.5,47.6 c -11.9,2.9 -19.1,14.9 -16.2,26.8 2.9,11.9 15,19.1 26.7,16.2 l 194.5,-47.6 c 11.9,-2.9 19.2,-14.9 16.3,-26.7 -2.5,-10.2 -11.5,-16.9 -21.5,-16.9"
         style="fill:#ffffff;fill-opacity:0;fill-rule:nonzero;stroke:none"
         id="path32" />
      <path
         d="m 11902.2,6715.9 -664.4,-667.7 -352.3,129.4 612.5,854.2 404.2,-315.9"
         style="fill:#ffffff;fill-opacity:0;fill-rule:nonzero;stroke:none"
         id="path34" />
      <path
         d="m 10920.5,6188.3 311.6,-114.4 636.8,639.9 -366.3,286.3 z m 317.3,-162.2 c -2.6,0 -5.2,0.4 -7.7,1.3 l -352.2,129.4 c -6.5,2.4 -11.5,7.7 -13.6,14.3 -2,6.6 -0.8,13.8 3.2,19.4 l 612.5,854.2 c 3.5,4.9 8.9,8.1 14.9,9 6.1,0.8 12,-0.8 16.8,-4.5 l 404.2,-315.9 c 5,-3.9 8.1,-9.7 8.5,-16.1 0.3,-6.3 -2,-12.5 -6.5,-17 l -664.4,-667.6 c -4.3,-4.3 -9.9,-6.5 -15.7,-6.5"
         style="fill:currentColor;fill-opacity:1;fill-rule:nonzero;stroke:none"
         id="path36" />
      <path
         d="m 11447.7,6152.7 c 0,0 32.1,-284 -22.4,-535 -29,-133.8 -149.5,-227.9 -286.4,-227.9 H 9508.09 c -116.58,0 -169.41,145.5 -80.06,220.4 289.97,242.9 823.37,613.9 1479.27,722.8 l 182.9,-256 357.5,75.7"
         style="fill:currentColor;fill-opacity:1;fill-rule:nonzero;stroke:none"
         id="path38" />
      <path
         d="M 11275.7,5591.9 H 9585.63 c -12.24,0 -22.14,9.9 -22.14,22.2 0,12.2 9.9,22.1 22.14,22.1 h 1690.07 c 12.3,0 22.2,-9.9 22.2,-22.1 0,-12.3 -9.9,-22.2 -22.2,-22.2"
         style="fill:#ffffff;fill-opacity:0;fill-rule:nonzero;stroke:none"
         id="path40" />
      <path
         d="m 10528.7,5892.1 c -8.7,0 -17,5.2 -20.5,13.7 l -89.5,217.1 c -4.6,11.3 0.8,24.2 12.1,28.9 11.2,4.6 24.2,-0.7 28.9,-12.1 l 89.5,-217 c 4.6,-11.3 -0.8,-24.2 -12.1,-28.9 -2.7,-1.1 -5.6,-1.7 -8.4,-1.7"
         style="fill:#ffffff;fill-opacity:0;fill-rule:nonzero;stroke:none"
         id="path42" />
      <path
         d="m 10234.5,5835.1 c -9.3,0 -17.9,5.9 -21,15.2 l -64.7,195.7 c -3.9,11.7 2.4,24.2 14.1,28 11.5,3.9 24.1,-2.4 27.9,-14 l 64.8,-195.8 c 3.8,-11.6 -2.5,-24.2 -14.1,-28 -2.3,-0.8 -4.7,-1.1 -7,-1.1"
         style="fill:#ffffff;fill-opacity:0;fill-rule:nonzero;stroke:none"
         id="path44" />
      <path
         d="m 15419.6,11387.8 c 0,0 -3036.9,353.5 -3940,-428.2 -903,-781.7 1425.6,-4143.3 1425.6,-4143.3 l 736.4,546.1 -698.6,2375.9 2807.3,797.3 -330.7,852.2"
         style="fill:currentColor;fill-opacity:1;fill-rule:nonzero;stroke:none"
         id="path46" />
      <path
         d="m 17090.9,9840.6 c -441.1,-140 -1230.4,-321 -2333.6,-306 -313.5,4.3 -602.9,-168.9 -745.3,-448.1 C 13685.3,8445.6 12978,7291.8 11826,6544 l -550.3,296.4 1404.4,3161.3 c 128.2,288.6 368,512.9 664.5,621.6 l 2783.2,1020.6 c 0,0 863,241.2 1286.2,-529.2 75.5,-137.5 215.8,108.4 249.3,-2.6 114.5,-380.6 -193.5,-1151.3 -572.4,-1271.5"
         style="fill:currentColor;fill-opacity:1;fill-rule:nonzero;stroke:none"
         id="path48" />
      <path
         d="m 12045.4,8551 c -2.9,0 -6,0.6 -8.9,1.9 -11.2,4.9 -16.2,18 -11.3,29.2 l 634.6,1428.5 c 129.9,292.5 376.8,523.4 677.2,633.5 l 1332.8,488.8 c 11.6,4.2 24.2,-1.7 28.5,-13.2 4.2,-11.5 -1.7,-24.2 -13.2,-28.4 l -1332.9,-488.8 c -289.2,-106 -526.8,-328.3 -651.9,-609.8 l -634.6,-1428.6 c -3.7,-8.2 -11.8,-13.1 -20.3,-13.1"
         style="fill:#ffffff;fill-opacity:0;fill-rule:nonzero;stroke:none"
         id="path50" />
      <path
         d="m 12786.4,7322.9 c -5.5,0 -11,2.1 -15.3,6.2 -8.8,8.5 -9.1,22.5 -0.7,31.3 126.8,131.9 251.6,273.5 370.9,420.9 7.6,9.5 21.6,11 31.1,3.3 9.5,-7.7 11,-21.6 3.3,-31.1 -120.1,-148.5 -245.7,-291 -373.3,-423.8 -4.4,-4.5 -10.2,-6.8 -16,-6.8"
         style="fill:#ffffff;fill-opacity:0;fill-rule:nonzero;stroke:none"
         id="path52" />
      <path
         d="m 13158.5,7745.2 c -4.9,0 -9.8,1.7 -13.9,5 -9.6,7.7 -11,21.6 -3.3,31.1 58.8,72.8 117.3,148.1 173.6,223.7 7.3,9.8 21.1,11.9 31,4.5 9.8,-7.3 11.8,-21.1 4.5,-30.9 -56.7,-76.2 -115.4,-151.9 -174.7,-225.1 -4.4,-5.5 -10.8,-8.3 -17.2,-8.3"
         style="fill:#ffffff;fill-opacity:0;fill-rule:nonzero;stroke:none"
         id="path54" />
      <path
         d="m 14729.5,13840.7 c 0,0 -267.1,-2425.4 -2060.7,-2584.1 l 2060.7,-29.3 c 0,0 763,1546.2 794,2148.2 31,602 -794,465.2 -794,465.2"
         style="fill:#ffffff;fill-opacity:0;fill-rule:nonzero;stroke:none"
         id="path56" />
      <path
         d="m 12928.9,11275.1 1786.9,-25.4 c 72.5,148.5 756.7,1564.8 785.6,2126.9 7.1,137.7 -32.2,245.8 -116.9,321.5 -189.7,169.5 -553.9,133.5 -635.1,123 -13.5,-103.5 -95.4,-658.3 -357.5,-1222.3 -338.6,-728.6 -841,-1181.5 -1463,-1323.7 z m 1800.6,-69.9 c -0.1,0 -0.2,0 -0.3,0 l -2060.7,29.3 c -11.8,0.1 -21.4,9.5 -21.8,21.3 -0.4,11.8 8.4,21.8 20.2,22.9 916,81 1421.8,772.8 1684.8,1338.8 286.1,615.8 355.2,1219.6 355.8,1225.6 1.1,9.9 8.6,17.8 18.4,19.4 18.6,3.1 458.8,73.3 688,-131.3 95.3,-85 139.6,-205.1 131.8,-356.8 -30.9,-599.7 -765.1,-2093.6 -796.3,-2156.9 -3.7,-7.5 -11.4,-12.3 -19.9,-12.3"
         style="fill:currentColor;fill-opacity:1;fill-rule:nonzero;stroke:none"
         id="path58" />
      <path
         d="m 17282.3,15382.1 c -348,81.8 -493.1,82.9 -1757.9,37.1 -309.2,-11.2 -653.1,-495.2 -689.4,-802.3 98.2,-294.7 527.9,-1653.6 -263.7,-2790.2 -112.4,-161.3 -265,-338.2 -474.7,-507.7 117.8,-95.3 300.8,-219.3 546.6,-292.2 408.1,-121.2 613.3,9.8 942.1,0 869.9,-26 1188.9,-994.8 1750.7,-873.1 150,32.5 348.9,149.5 535.3,542 105.7,325.5 199.7,707.7 252.1,1139.6 141.9,1170.9 -90.3,2145.9 -297.8,2757.7 -61.6,193.2 -133.1,692.7 -543.3,789.1"
         style="fill:#ffffff;fill-opacity:0;fill-rule:nonzero;stroke:none"
         id="path60" />
      <path
         d="m 15549.8,11049.4 c 11.9,0 24,-0.1 36.2,-0.5 463.2,-13.8 770,-287.8 1040.7,-529.5 240.3,-214.5 447.7,-399.7 704.6,-344.1 198.2,42.9 372.9,220.8 519.4,528.6 120,369.8 204.3,751.4 250.7,1134.1 110.9,915.5 11.1,1840 -296.8,2747.9 -8.8,27.7 -17.5,60.1 -27.5,97.7 -59.7,223.2 -159.6,596.9 -499.9,676.9 -340.9,80.2 -471.9,82.9 -1752,36.5 -306.2,-11.1 -630.6,-490.3 -667.6,-777.9 164.9,-496.7 464.1,-1753.7 -268.2,-2805.1 -127,-182.4 -280.9,-348.8 -457.5,-494.8 160.3,-125.6 334.3,-216.8 517.6,-271.2 256.4,-76.1 428.1,-51.4 609.9,-25.2 91.1,13.1 184.9,26.6 290.4,26.6 z m 1687.9,-928.6 c -230.9,0 -422.7,171.2 -640.4,365.6 -265.1,236.7 -565.6,504.9 -1012.7,518.2 -116.6,3.5 -219.4,-11.3 -318.8,-25.6 -178.7,-25.7 -363.3,-52.3 -628.9,26.5 -197,58.5 -383.5,158.2 -554.2,296.2 -5.2,4.2 -8.3,10.6 -8.3,17.3 0,6.6 3.1,13 8.3,17.2 182.3,147.5 340.6,316.8 470.4,503.1 723.1,1038.3 423.3,2283.4 260.8,2770.5 -1,3.1 -1.3,6.4 -1,9.7 35.7,301.2 382.6,809.9 710.7,821.8 1285.6,46.6 1417.5,43.8 1763.7,-37.6 366.2,-86.1 470.3,-475.8 532.6,-708.7 9.9,-37 18.4,-69 26.8,-95.3 309.9,-913.8 410.4,-1844.9 298.7,-2767 -46.8,-386 -131.9,-770.9 -253,-1143.8 -0.3,-1 -0.7,-1.8 -1.1,-2.7 -152.8,-321.7 -338,-508.1 -550.6,-554.2 -35.3,-7.6 -69.6,-11.2 -103,-11.2"
         style="fill:currentColor;fill-opacity:1;fill-rule:nonzero;stroke:none"
         id="path62" />
      <path
         d="m 14493.8,13568.9 c 0,0 341.5,1689 930.9,1829 l -272.2,-2206.3 -658.7,377.3"
         style="fill:#ffffff;fill-opacity:0;fill-rule:nonzero;stroke:none"
         id="path64" />
      <path
         d="m 15152.5,13169.5 c -3.9,0 -7.7,0.9 -11.1,2.9 l -658.6,377.3 c -8.3,4.7 -12.6,14.2 -10.7,23.6 14.1,69.5 351.2,1704.5 947.5,1846.2 12,2.8 23.9,-4.6 26.7,-16.4 2.8,-11.9 -4.5,-23.9 -16.4,-26.7 -539.3,-128.1 -874.7,-1626 -911.1,-1796.3 l 615.7,-352.7 44.9,363.1 c 1.5,12.1 12.7,20.7 24.6,19.2 12.2,-1.5 20.8,-12.5 19.3,-24.7 l -48.9,-396.1 c -0.9,-7.4 -5.4,-13.8 -12,-17.1 -3.2,-1.6 -6.6,-2.3 -9.9,-2.3"
         style="fill:currentColor;fill-opacity:1;fill-rule:nonzero;stroke:none"
         id="path66" />
      <path
         d="m 16244.6,16190.4 -42,-584.1 c -9.3,-76 -64,-138.6 -138.1,-157.9 l -205.2,-53.5 133.1,-101.4 c 295.2,-224.7 704,-270.7 999.5,-46.5 l 210.7,153.1 -254.9,63.6 c -73.2,16.4 -129.5,120.7 -142.8,194.6 l -112.6,772.9 -447.7,-240.8"
         style="fill:#ffffff;fill-opacity:0;fill-rule:nonzero;stroke:none"
         id="path68" />
      <path
         d="m 15909,15384.9 96.8,-73.7 c 308.7,-235.1 699.6,-253.8 972.8,-46.6 l 172.6,125.5 -208.9,52.1 c -86.8,19.4 -145.5,135.8 -159.2,212.1 l -108.2,742.4 -409.1,-220.1 -41.1,-571.9 c -10.6,-86.7 -71.2,-156 -154.6,-177.8 z m 634.3,-308.1 c -191.7,0 -390.5,66.8 -564.3,199.1 l -133.1,101.4 c -6.7,5.1 -10,13.7 -8.3,22 1.7,8.3 7.9,14.9 16.1,17.1 l 205.2,53.4 c 65.7,17.1 113.5,71.8 121.7,139.1 l 41.9,583.1 c 0.5,7.5 4.9,14.3 11.6,17.9 l 447.7,240.8 c 6.3,3.4 14,3.5 20.4,0.2 6.5,-3.2 10.9,-9.4 12,-16.5 l 112.6,-772.9 c 11.6,-64.3 61.8,-161.9 125.7,-176.2 l 255.4,-63.7 c 8.4,-2.1 14.8,-8.9 16.4,-17.3 1.7,-8.5 -1.7,-17.1 -8.7,-22.2 l -210.6,-153 c -134.3,-101.9 -295.3,-152.3 -461.7,-152.3"
         style="fill:currentColor;fill-opacity:1;fill-rule:nonzero;stroke:none"
         id="path70" />
      <path
         d="m 15580.8,17003.4 c 140.5,74.3 27.4,-157.1 489.3,242.6 183.9,159.2 190.5,-138 238.4,-96.8 176.6,152 170.4,147 281.9,166.4 73.8,12.8 172.4,-89 201.8,-185.4 38.7,-127.1 -45.9,-203.3 -17,-496.2 20.3,-205.7 85,-306.8 25.7,-365.2 -59.9,-59.1 -157.5,13.1 -227.8,-46.5 -91.1,-77.1 12.8,-248.7 -54.4,-370.3 -42.4,-76.7 -181.6,-166.9 -474.4,-159.9 -47.5,1.2 -87.7,36.1 -95.4,83.1 -9.9,60.2 -22.1,136.4 -27.6,210.1 -26.2,351.2 49.5,467.9 -25,527.9 -114.1,92 -308,-79.4 -390.3,1.4 -85.5,83.9 -117.4,387 74.8,488.8"
         style="fill:currentColor;fill-opacity:1;fill-rule:nonzero;stroke:none"
         id="path72" />
      <path
         d="m 16279.5,16806.4 -5.9,-95.9 c -2.7,-45.2 -2.3,-90.5 1.2,-135.7 6.5,-84.7 16.7,-230.5 16.2,-312.5 -0.7,-120.5 -373.2,-144.1 -373.2,-144.1 l -47.3,52.6 -43.8,-1.8 c -8.4,-0.4 -17,1 -24.5,4.9 -18.9,9.9 -28.2,30 -25,49.5 17.7,106.4 48.5,341.5 14.4,524.2 0,0 207.1,168.2 487.9,58.8"
         style="fill:#ffffff;fill-opacity:0;fill-rule:nonzero;stroke:none"
         id="path74" />
      <path
         d="m 15870.5,16193 c 6.2,0 12.2,-2.7 16.5,-7.4 l 40,-44.5 c 145.3,10.6 341.4,54.2 341.9,121.3 0.5,81.7 -9.9,229.8 -16.2,310.7 -3.6,46 -4,92.7 -1.2,138.7 l 4.9,79.6 c -226.4,80.9 -397.6,-23.1 -440.6,-53.4 30.2,-179.9 2.7,-400.8 -16.7,-518.2 -1.8,-10.6 3.6,-21.1 13.3,-26.2 3.5,-1.8 8.1,-2.7 13.4,-2.5 l 43.8,1.8 c 0.3,0.1 0.6,0.1 0.9,0.1 z m 47.2,-96.9 c -6.2,0 -12.2,2.6 -16.4,7.3 l -40.3,44.9 -33.3,-1.4 c -13,-0.6 -25.4,2 -35.8,7.4 -26.7,14 -41.4,43.2 -36.5,72.7 15.6,94.6 48.4,334.4 14.4,516.5 -1.5,8 1.5,16.2 7.8,21.3 8.9,7.2 220.5,175 509.9,62.3 9,-3.5 14.7,-12.4 14.1,-22 l -5.9,-96 c -2.6,-44 -2.3,-88.6 1.1,-132.6 6.4,-81.6 16.9,-231.1 16.4,-314.4 -0.9,-134.3 -328.4,-161.8 -394,-166 -0.5,0 -1,0 -1.5,0"
         style="fill:currentColor;fill-opacity:1;fill-rule:nonzero;stroke:none"
         id="path76" />
      <path
         d="m 16344.9,16510.8 c 0,0 13.7,230.7 117.2,201.5 103.4,-29.1 81.9,-282.7 -117.2,-201.5"
         style="fill:#ffffff;fill-opacity:0;fill-rule:nonzero;stroke:none"
         id="path78" />
      <path
         d="M 11259.3,11025.3 H 15331 c 97.4,0 176.3,78.9 176.3,176.3 v 61.3 H 11083 v -61.3 c 0,-97.4 79,-176.3 176.3,-176.3"
         style="fill:#ffffff;fill-opacity:0;fill-rule:nonzero;stroke:none"
         id="path80" />
      <path
         d="m 11105.2,11240.7 v -39.1 c 0,-85 69.1,-154.1 154.1,-154.1 H 15331 c 85,0 154.1,69.1 154.1,154.1 v 39.1 z m 4225.8,-237.5 h -4071.7 c -109.4,0 -198.4,89 -198.4,198.4 v 61.3 c 0,12.2 9.9,22.1 22.1,22.1 h 4424.3 c 12.2,0 22.1,-9.9 22.1,-22.1 v -61.3 c 0,-109.4 -89,-198.4 -198.4,-198.4"
         style="fill:currentColor;fill-opacity:1;fill-rule:nonzero;stroke:none"
         id="path82" />
      <path
         d="m 11082.9,11258.6 h 2531.6 l -804.3,2367.6 c -48.1,74.1 -132,119 -222.1,119 H 10448 c -97,0 -159.6,-94.2 -127.9,-177.4 12.6,-33.1 26.2,-65.7 37.2,-99.4 l 725.6,-2209.8"
         style="fill:#ffffff;fill-opacity:0;fill-rule:nonzero;stroke:none"
         id="path84" />
      <path
         d="m 11099,11280.7 h 2484.6 l -793.5,2335.7 c -44.5,66.8 -119.8,106.7 -202,106.7 H 10448 c -38.7,0 -73.2,-17.8 -94.6,-48.9 -20.2,-29.3 -24.9,-66.1 -12.6,-98.5 3.5,-9.3 7.2,-18.6 10.8,-28 9.2,-23.4 18.7,-47.7 26.8,-72.4 z m 2515.5,-44.3 h -2531.6 c -9.5,0 -18,6.2 -21,15.3 l -725.6,2209.8 c -7.7,23.5 -17,47.2 -25.9,70.1 -3.7,9.4 -7.4,18.9 -11,28.3 -17.5,46 -11,98.1 17.5,139.5 29.8,43.2 77.6,68 131.1,68 h 2140.1 c 98.2,0 188.2,-48.3 240.7,-129.1 1,-1.6 1.8,-3.2 2.4,-5 l 804.3,-2367.6 c 2.3,-6.8 1.2,-14.2 -3,-20 -4.1,-5.8 -10.8,-9.3 -18,-9.3"
         style="fill:currentColor;fill-opacity:1;fill-rule:nonzero;stroke:none"
         id="path86" />
      <path
         d="m 12022.4,12533.8 c 30.2,-100.1 -15.9,-202.5 -102.9,-228.8 -87.1,-26.2 -182.1,33.6 -212.2,133.7 -30.2,100.1 15.9,202.6 102.9,228.8 87.1,26.3 182.1,-33.5 212.2,-133.7"
         style="fill:currentColor;fill-opacity:1;fill-rule:nonzero;stroke:none"
         id="path88" />
      <path
         d="m 18094.8,13134.4 c 0,0 -124.1,-1573 -475.6,-2168.5 -419.7,-711.3 -2536.9,246.6 -2536.9,246.6 l -246.2,139.5 c -166.6,94.3 -365.1,114.5 -547.2,55.7 l -397.8,-128.3 c 0,0 328.5,393.8 607.9,544.4 130.9,70.6 300.7,3.9 444.2,-87 246.7,-156.3 537,-229.6 829,-220.9 l 842.2,25.1 c 141.4,4.2 257.3,113.6 269.6,254.5 l 126.9,1769.2 1083.9,-430.3"
         style="fill:#ffffff;fill-opacity:0;fill-rule:nonzero;stroke:none"
         id="path90" />
      <path
         d="m 14498.6,11462.8 c 121,0 241.4,-31 348.4,-91.6 l 246.3,-139.4 c 19.2,-8.6 2102,-940.8 2506.8,-254.7 325.9,552.1 456.8,1974.3 471.3,2142.7 L 17030.8,13533 16906,11793.9 c -13.2,-152.4 -138.3,-270.6 -291,-275.1 l -842.2,-25 c -304.9,-9.1 -595.5,68.5 -841.5,224.3 -122,77.3 -294.3,155 -421.8,86.2 -207.5,-111.8 -446,-363.9 -549.2,-479.4 l 321.8,103.9 c 70.5,22.7 143.6,34 216.5,34 z m 2478.9,-782.9 c -759.5,0 -1841.5,484 -1904.3,512.5 l -248,140.3 c -160.7,91 -353.7,110.6 -529.5,53.9 l -397.8,-128.3 c -9.3,-3 -19.6,0.5 -25.1,8.7 -5.6,8.1 -5,19 1.3,26.5 13.5,16.3 334.4,398.9 614.4,549.8 117.6,63.4 274.5,33.8 466.5,-87.8 238.6,-151 520.6,-226.1 816.5,-217.4 l 842.3,25 c 130.1,3.9 236.8,104.6 248.1,234.3 l 126.9,1768.9 c 0.5,7.1 4.3,13.4 10.3,17.2 6,3.8 13.4,4.4 20,1.8 l 1083.9,-430.4 c 9,-3.5 14.7,-12.6 13.9,-22.3 -5.1,-64.4 -128.6,-1584.9 -478.6,-2178 -118.9,-201.5 -365.5,-274.7 -660.8,-274.7"
         style="fill:currentColor;fill-opacity:1;fill-rule:nonzero;stroke:none"
         id="path92" />
      <path
         d="m 18291.7,13023.2 c 0,0 132.6,1013.5 -13.6,1370.5 -341.1,832.6 -862.5,949.3 -946,974.1 l -480.6,-2058.1 1440.2,-286.5"
         style="fill:#ffffff;fill-opacity:0;fill-rule:nonzero;stroke:none"
         id="path94" />
      <path
         d="m 18291.7,13001 c -1.5,0 -2.9,0.2 -4.4,0.4 l -1440.2,286.6 c -5.8,1.1 -11,4.6 -14.2,9.7 -3.3,5 -4.4,11.2 -3,17 l 98.1,420.2 c 2.8,11.9 14.8,19.3 26.6,16.6 12,-2.8 19.4,-14.7 16.6,-26.7 l -92.9,-397.9 1394.3,-277.4 c 18.6,153.8 115.1,1018.2 -15,1335.8 -147.6,360.2 -426.9,818.7 -919.5,957.8 l -12.3,3.5 c -11.7,3.5 -18.4,15.8 -14.9,27.6 3.5,11.7 15.7,18.4 27.6,14.9 l 11.7,-3.4 c 403.5,-113.9 731.4,-454 948.4,-983.6 146.7,-358.3 20.5,-1340.2 15,-1381.8 -0.7,-6.1 -4,-11.6 -9,-15.1 -3.8,-2.8 -8.3,-4.2 -12.9,-4.2"
         style="fill:currentColor;fill-opacity:1;fill-rule:nonzero;stroke:none"
         id="path96" />
      <path
         d="m 10985.5,3617.3 c -448.3,0 -877.8,73.6 -1281.28,220.1 -11.51,4.2 -17.46,16.9 -13.28,28.4 4.19,11.5 16.93,17.4 28.38,13.2 513.78,-186.4 1070.48,-253.5 1654.58,-199.2 212.6,19.8 425.5,43.2 633,69.8 12.2,1.5 23.3,-7.1 24.8,-19.2 1.5,-12.1 -7,-23.2 -19.2,-24.8 -208,-26.6 -421.4,-50.1 -634.5,-69.9 -132.2,-12.3 -263.2,-18.4 -392.5,-18.4"
         style="fill:currentColor;fill-opacity:1;fill-rule:nonzero;stroke:none"
         id="path98" />
      <path
         d="m 3865.26,11107.1 c -77.35,0 -140.3,-62.9 -140.3,-140.2 0,-77.4 62.95,-140.3 140.3,-140.3 77.35,0 140.28,62.9 140.28,140.3 0,77.3 -62.93,140.2 -140.28,140.2 z m 0,-324.8 c -101.8,0 -184.6,82.8 -184.6,184.6 0,101.7 82.8,184.5 184.6,184.5 101.77,0 184.57,-82.8 184.57,-184.5 0,-101.8 -82.8,-184.6 -184.57,-184.6"
         style="fill:currentColor;fill-opacity:1;fill-rule:nonzero;stroke:none"
         id="path100" />
      <path
         d="m 4061.17,11773.1 c -12.24,0 -22.15,9.9 -22.15,22.2 v 171.8 c 0,12.2 9.91,22.1 22.15,22.1 12.24,0 22.15,-9.9 22.15,-22.1 v -171.8 c 0,-12.3 -9.91,-22.2 -22.15,-22.2"
         style="fill:currentColor;fill-opacity:1;fill-rule:nonzero;stroke:none"
         id="path102" />
      <path
         d="m 4061.17,11372.9 c -12.24,0 -22.15,10 -22.15,22.2 v 171.8 c 0,12.2 9.91,22.1 22.15,22.1 12.24,0 22.15,-9.9 22.15,-22.1 v -171.8 c 0,-12.2 -9.91,-22.2 -22.15,-22.2"
         style="fill:currentColor;fill-opacity:1;fill-rule:nonzero;stroke:none"
         id="path104" />
      <path
         d="m 3946.96,11658.9 h -171.77 c -12.25,0 -22.15,9.9 -22.15,22.2 0,12.2 9.9,22.1 22.15,22.1 h 171.77 c 12.24,0 22.15,-9.9 22.15,-22.1 0,-12.3 -9.91,-22.2 -22.15,-22.2"
         style="fill:currentColor;fill-opacity:1;fill-rule:nonzero;stroke:none"
         id="path106" />
      <path
         d="m 4347.13,11658.9 h -171.77 c -12.24,0 -22.15,9.9 -22.15,22.2 0,12.2 9.91,22.1 22.15,22.1 h 171.77 c 12.25,0 22.16,-9.9 22.16,-22.1 0,-12.3 -9.91,-22.2 -22.16,-22.2"
         style="fill:currentColor;fill-opacity:1;fill-rule:nonzero;stroke:none"
         id="path108" />
      <path
         d="m 19125.7,18122.8 c -9.3,0 -18,6 -21.1,15.4 l -32.1,100 c -3.7,11.7 2.7,24.1 14.3,27.9 11.6,3.7 24.1,-2.7 27.9,-14.3 l 32.1,-100 c 3.8,-11.7 -2.6,-24.1 -14.3,-27.9 -2.3,-0.7 -4.5,-1.1 -6.8,-1.1"
         style="fill:currentColor;fill-opacity:1;fill-rule:nonzero;stroke:none"
         id="path110" />
      <path
         d="m 19238.2,17772.9 c -9.4,0 -18.1,5.9 -21.1,15.3 l -32.1,100 c -3.8,11.7 2.6,24.2 14.3,27.9 11.6,3.7 24.1,-2.7 27.9,-14.3 l 32.1,-100 c 3.7,-11.7 -2.7,-24.1 -14.3,-27.9 -2.3,-0.7 -4.6,-1 -6.8,-1"
         style="fill:currentColor;fill-opacity:1;fill-rule:nonzero;stroke:none"
         id="path112" />
      <path
         d="m 18941,17925.4 c -9.4,0 -18.1,5.9 -21.1,15.3 -3.8,11.7 2.6,24.2 14.3,27.9 l 99.9,32.2 c 11.7,3.8 24.2,-2.6 27.9,-14.3 3.8,-11.6 -2.6,-24.1 -14.3,-27.8 l -100,-32.3 c -2.2,-0.7 -4.5,-1 -6.7,-1"
         style="fill:currentColor;fill-opacity:1;fill-rule:nonzero;stroke:none"
         id="path114" />
      <path
         d="m 19290.9,18038.1 c -9.4,0 -18.1,6 -21.1,15.4 -3.8,11.6 2.6,24.1 14.3,27.9 l 99.9,32.2 c 11.7,3.7 24.2,-2.7 27.9,-14.3 3.8,-11.7 -2.7,-24.1 -14.3,-27.9 l -99.9,-32.2 c -2.3,-0.8 -4.6,-1.1 -6.8,-1.1"
         style="fill:currentColor;fill-opacity:1;fill-rule:nonzero;stroke:none"
         id="path116" />
      <path
         d="m 17973.2,19103.7 c -5,0 -10.1,1.7 -14.2,5.2 -101.2,85.6 -205.3,170 -309.5,250.9 -9.7,7.5 -11.5,21.4 -3.9,31 7.5,9.7 21.3,11.5 31,4 104.8,-81.3 209.4,-166.1 311,-252.1 9.3,-7.9 10.5,-21.8 2.6,-31.2 -4.4,-5.2 -10.7,-7.8 -17,-7.8"
         style="fill:currentColor;fill-opacity:1;fill-rule:nonzero;stroke:none"
         id="path118" />
      <path
         d="m 17663,19355.1 c -4.7,0 -9.5,1.5 -13.5,4.7 -1453.1,1127.7 -3185.8,1771.5 -4878.8,1812.8 -12.2,0.3 -21.9,10.5 -21.6,22.7 0.3,12.1 10.2,21.6 22.2,21.6 0.1,0 0.3,0 0.5,0 855.6,-20.9 1714.1,-189.7 2551.8,-502 832.3,-310.2 1624,-754.4 2353,-1320.1 9.7,-7.5 11.5,-21.5 3.9,-31.1 -4.3,-5.6 -10.9,-8.6 -17.5,-8.6"
         style="fill:currentColor;fill-opacity:1;fill-rule:nonzero;stroke:none"
         id="path120" />
      <path
         d="m 16970.5,19301.1 c -4.3,0 -8.6,1.3 -12.4,3.8 -1103.6,740.8 -2341.3,1192.5 -3579.1,1306.2 -12.2,1.1 -21.1,11.9 -20,24.1 1.1,12.2 12,21.1 24.1,20 1245.1,-114.4 2489.9,-568.6 3599.7,-1313.5 10.2,-6.8 12.9,-20.6 6.1,-30.8 -4.3,-6.3 -11.3,-9.8 -18.4,-9.8"
         style="fill:currentColor;fill-opacity:1;fill-rule:nonzero;stroke:none"
         id="path122" />
      <path
         d="m 18293.5,18966.3 c -53.1,0 -102.8,-33.2 -121.1,-86.1 -23.1,-66.7 12.3,-139.8 79,-162.9 32.3,-11.2 67,-9.2 97.8,5.7 30.8,14.9 53.9,41 65.1,73.3 23.1,66.6 -12.3,139.7 -79,162.9 -13.8,4.8 -27.9,7.1 -41.8,7.1 z m 0,-300.5 c -19,0 -38.1,3.2 -56.6,9.6 -89.8,31.2 -137.5,129.6 -106.3,219.3 31.1,89.8 129.3,137.5 219.3,106.3 89.7,-31.1 137.4,-129.5 106.2,-219.3 -15,-43.4 -46.2,-78.4 -87.6,-98.5 -23.8,-11.6 -49.3,-17.4 -75,-17.4"
         style="fill:currentColor;fill-opacity:1;fill-rule:nonzero;stroke:none"
         id="path124" />
      <path
         d="m 12241.9,21121.6 221.1,-48.2 -82.8,206.7 c -30,-32.6 -84.3,-92.7 -138.3,-158.5 z m 257.2,-100.9 c -1.6,0 -3.1,0.2 -4.7,0.5 l -297,64.8 c -7.5,1.7 -13.6,7 -16.2,14.3 -2.6,7.2 -1.2,15.2 3.6,21.2 87.9,110.2 185.9,213.4 186.9,214.5 5.2,5.4 12.9,7.9 20.2,6.4 7.4,-1.4 13.6,-6.5 16.4,-13.5 l 111.4,-277.8 c 3,-7.6 1.6,-16.3 -3.7,-22.6 -4.2,-5 -10.4,-7.8 -16.9,-7.8"
         style="fill:currentColor;fill-opacity:1;fill-rule:nonzero;stroke:none"
         id="path126" />
      <path
         d="m 20780.8,3372.1 h -4282.5 c -257,0 -449.4,236 -397.6,487.8 l 649.7,3158.3 c 54.7,265.6 288.5,456.2 559.6,456.2 h 3673.4 l -202.6,-4102.3"
         style="fill:#ffffff;fill-opacity:0;fill-rule:nonzero;stroke:none"
         id="path128" />
      <path
         d="m 17310,7452.3 c -259.4,0 -485.6,-184.4 -537.9,-438.5 l -649.7,-3158.4 c -23.3,-113.4 5.2,-230 78.4,-319.8 73.3,-89.8 181.7,-141.3 297.5,-141.3 h 4261.4 l 200.4,4058 z M 20780.8,3350 h -4282.5 c -129.2,0 -250.1,57.4 -331.8,157.6 -81.6,100.1 -113.5,230.2 -87.5,356.8 l 649.7,3158.3 c 56.5,274.6 301,473.9 581.3,473.9 h 3673.4 c 6,0 11.8,-2.5 16,-6.9 4.2,-4.4 6.4,-10.3 6.1,-16.4 l -202.6,-4102.2 c -0.5,-11.8 -10.3,-21.1 -22.1,-21.1"
         style="fill:currentColor;fill-opacity:1;fill-rule:nonzero;stroke:none"
         id="path130" />
      <path
         d="m 21329.1,3372.1 h -831 c -257.1,0 -449.5,236 -397.7,487.8 l 715.7,3478.7 c 16.2,79.1 85.9,135.8 166.6,135.8 h 213.7 c 88.6,0 162.4,-68 169.6,-156.3 l 292.7,-3588.4 c 15.7,-192.6 -136.3,-357.6 -329.6,-357.6"
         style="fill:#ffffff;fill-opacity:0;fill-rule:nonzero;stroke:none"
         id="path132" />
      <path
         d="m 20982.7,7452.3 c -69.9,0 -130.9,-49.7 -145,-118.2 l -715.6,-3478.7 c -23.3,-113.4 5.3,-230 78.5,-319.8 73.2,-89.8 181.6,-141.3 297.4,-141.3 h 831.1 c 87.2,0 167.8,35.3 226.9,99.4 59.1,64.2 87.7,147.3 80.6,234.2 l -292.7,3588.4 c -6.2,76.3 -71,136 -147.5,136 z M 21329.1,3350 H 20498 c -129.2,0 -250.1,57.4 -331.7,157.6 -81.7,100.2 -113.6,230.2 -87.5,356.8 l 715.6,3478.6 c 18.3,89 97.5,153.6 188.3,153.6 h 213.7 c 99.4,0 183.6,-77.6 191.7,-176.7 l 292.7,-3588.4 c 8,-97.9 -25.6,-195.5 -92.2,-267.8 -66.6,-72.3 -161.2,-113.7 -259.5,-113.7"
         style="fill:currentColor;fill-opacity:1;fill-rule:nonzero;stroke:none"
         id="path134" />
      <path
         d="m 20197.3,5794.4 h -3353 c -12.3,0 -22.2,9.9 -22.2,22.1 0,12.3 9.9,22.2 22.2,22.2 h 3353 c 89.6,0 166.5,60.8 187.1,148 l 295.6,1247.7 c 2.8,11.9 14.8,19.3 26.7,16.4 11.9,-2.8 19.2,-14.7 16.4,-26.6 l -295.6,-1247.8 c -25.3,-107.2 -120,-182 -230.2,-182"
         style="fill:currentColor;fill-opacity:1;fill-rule:nonzero;stroke:none"
         id="path136" />
      <path
         d="m 18903.2,5816.5 -93.9,-378.8 c -15.2,-64.1 -72.5,-109.4 -138.3,-109.4 h -664.1 c -72.3,0 -124.7,68.9 -105.3,138.6 l 97.2,349.6 h 904.4"
         style="fill:#ffffff;fill-opacity:0;fill-rule:nonzero;stroke:none"
         id="path138" />
      <path
         d="m 18015.7,5794.4 -92.8,-333.4 c -7.4,-26.5 -2.1,-54.2 14.6,-76.1 16.6,-21.9 41.9,-34.5 69.4,-34.5 h 664.1 c 55.8,0 103.8,38 116.7,92.4 l 87.2,351.6 z m 655.3,-488.2 h -664.1 c -41.5,0 -79.6,18.9 -104.7,51.9 -25.1,33 -33.1,74.8 -22,114.7 l 97.3,349.7 c 2.7,9.6 11.4,16.2 21.3,16.2 h 904.4 c 6.8,0 13.2,-3.1 17.4,-8.5 4.2,-5.4 5.7,-12.4 4.1,-19 l -93.9,-378.9 c -17.6,-74.2 -83.3,-126.1 -159.8,-126.1"
         style="fill:currentColor;fill-opacity:1;fill-rule:nonzero;stroke:none"
         id="path140" />
      <path
         d="m 19891.3,3667.3 h -3562.1 c -12.2,0 -22.1,9.9 -22.1,22.2 0,12.2 9.9,22.1 22.1,22.1 h 3562.1 c 12.3,0 22.2,-9.9 22.2,-22.1 0,-12.3 -9.9,-22.2 -22.2,-22.2"
         style="fill:currentColor;fill-opacity:1;fill-rule:nonzero;stroke:none"
         id="path142" />
      <path
         d="m 18156.2,7617.8 h -278.1 c -75.1,0 -136,-60.9 -136,-136 h 550.1 c 0,75.1 -60.9,136 -136,136"
         style="fill:currentColor;fill-opacity:1;fill-rule:nonzero;stroke:none"
         id="path144" />
      <path
         d="m 17766.4,7503.9 h 501.5 c -10.4,52.2 -56.5,91.7 -111.7,91.7 h -278.1 c -55.2,0 -101.3,-39.5 -111.7,-91.7 z m 525.8,-44.3 h -550.1 c -12.2,0 -22.1,9.9 -22.1,22.2 0,87.2 70.9,158.1 158.1,158.1 h 278.1 c 87.2,0 158.1,-70.9 158.1,-158.1 0,-12.3 -9.9,-22.2 -22.1,-22.2"
         style="fill:currentColor;fill-opacity:1;fill-rule:nonzero;stroke:none"
         id="path146" />
      <path
         d="m 20384.6,7617.8 h -278 c -75.1,0 -136,-60.9 -136,-136 h 550.1 c 0,75.1 -60.9,136 -136.1,136"
         style="fill:currentColor;fill-opacity:1;fill-rule:nonzero;stroke:none"
         id="path148" />
      <path
         d="m 19994.9,7503.9 h 501.4 c -10.3,52.2 -56.5,91.7 -111.7,91.7 h -278 c -55.2,0 -101.4,-39.5 -111.7,-91.7 z m 525.8,-44.3 h -550.1 c -12.3,0 -22.2,9.9 -22.2,22.2 0,87.2 71,158.1 158.2,158.1 h 278 c 87.3,0 158.2,-70.9 158.2,-158.1 0,-12.3 -9.9,-22.2 -22.1,-22.2"
         style="fill:currentColor;fill-opacity:1;fill-rule:nonzero;stroke:none"
         id="path150" />
      <path
         d="m 20312.1,7625.1 44.8,266.2 c 31.7,188.7 -95.5,341.7 -284.3,341.7 h -1667.3 c -188.8,0 -367.5,-153 -399.3,-341.7 l -44.8,-266.2 h 127.6 l 34.9,207.2 c 24.7,146.9 163.8,265.9 310.7,265.9 h 1563.7 c 146.9,0 245.9,-119 221.2,-265.9 l -34.9,-207.2 h 127.7"
         style="fill:#ffffff;fill-opacity:0;fill-rule:nonzero;stroke:none"
         id="path152" />
      <path
         d="m 20210.6,7647.3 h 82.7 l 41.7,247.6 c 14.4,85.7 -5.4,165.7 -55.9,225.4 -49.4,58.4 -122.7,90.6 -206.5,90.6 h -1667.3 c -178.1,0 -347.5,-145.1 -377.5,-323.3 l -40.4,-240.3 h 82.7 l 31.7,188.6 c 26.4,156.9 175.6,284.5 332.6,284.5 h 1563.7 c 77,0 144.7,-30 190.8,-84.4 46.9,-55.5 65.4,-129.1 52.3,-207.4 z M 20312,7603 h -127.6 c -6.5,0 -12.7,2.8 -16.9,7.8 -4.2,5 -6,11.6 -4.9,18 l 34.9,207.1 c 11,65.3 -4.1,126.1 -42.5,171.5 -37.4,44.3 -93.2,68.7 -156.9,68.7 h -1563.7 c -136.3,0 -265.9,-111 -288.9,-247.5 l -34.9,-207.2 c -1.8,-10.6 -11,-18.4 -21.8,-18.4 h -127.6 c -6.5,0 -12.7,2.8 -16.9,7.8 -4.2,5 -6.1,11.6 -5,18 l 44.8,266.1 c 33.5,198.7 222.4,360.3 421.2,360.3 h 1667.3 c 97,0 182.4,-37.8 240.3,-106.3 59,-69.8 82.4,-162.6 65.8,-261.3 l -44.8,-266.2 c -1.8,-10.6 -11,-18.4 -21.9,-18.4"
         style="fill:currentColor;fill-opacity:1;fill-rule:nonzero;stroke:none"
         id="path154" />
      <path
         d="m 19989.8,8343.2 h -1464.6 c -59,0 -114.9,-47.8 -124.9,-106.9 l -21.5,-127.9 c -10,-59 29.9,-106.9 88.9,-106.9 h 1464.6 c 59,0 114.9,47.9 124.9,106.9 l 21.5,127.9 c 9.9,59.1 -29.9,106.9 -88.9,106.9"
         style="fill:currentColor;fill-opacity:1;fill-rule:nonzero;stroke:none"
         id="path156" />
      <path
         d="m 18525.2,8321.1 c -48.6,0 -94.8,-39.7 -103,-88.4 l -21.6,-128 c -3.7,-22.3 1.3,-42.9 14.1,-58.1 12.5,-14.8 31.3,-22.9 53,-22.9 h 1464.6 c 48.6,0 94.8,39.6 103,88.4 l 21.5,127.9 c 3.8,22.3 -1.2,42.9 -14,58.1 -12.5,14.8 -31.3,23 -53,23 z m 1407.1,-341.7 h -1464.6 c -34.9,0 -65.7,13.7 -86.8,38.6 -21.4,25.3 -29.9,58.7 -24,94.1 l 21.6,127.9 c 11.6,69.1 77.4,125.4 146.7,125.4 h 1464.6 c 34.9,0 65.7,-13.7 86.8,-38.7 21.4,-25.3 29.9,-58.7 23.9,-94 l -21.5,-128 c -11.6,-69.1 -77.5,-125.3 -146.7,-125.3"
         style="fill:currentColor;fill-opacity:1;fill-rule:nonzero;stroke:none"
         id="path158" />
      <path
         d="m 20490.2,3667.3 c -7.7,0 -15.2,4 -19.3,11.2 -6,10.6 -2.3,24.1 8.3,30.2 l 562.9,320.7 v 3199.9 c 0,12.2 9.9,22.1 22.2,22.1 12.2,0 22.1,-9.9 22.1,-22.1 V 4016.5 c 0,-7.9 -4.2,-15.3 -11.2,-19.2 l -574,-327.1 c -3.5,-2 -7.3,-2.9 -11,-2.9"
         style="fill:currentColor;fill-opacity:1;fill-rule:nonzero;stroke:none"
         id="path160" />
      <path
         d="m 5582.41,5078.5 c 0,0 200.37,-1020.6 572.74,-989.6 0,0 191.43,70.7 281.81,-69.3 73.25,-113.4 24.28,-239.3 -131.12,-251.5 -141.62,-11.1 -361.03,-35.5 -546.88,141 -205.89,195.5 -720.28,696.1 -657.29,940.1 29.46,114.2 480.74,229.3 480.74,229.3"
         style="fill:#ffffff;fill-opacity:0;fill-rule:nonzero;stroke:none"
         id="path162" />
      <path
         d="m 5565.4,5051.2 c -170.39,-45.7 -424.03,-136.8 -442.27,-207.5 -28.4,-110 61.52,-358.6 651.07,-918.6 172.26,-163.5 378.44,-147 514.8,-136.1 l 15.1,1.2 c 64.27,5 111.28,31.2 132.36,73.8 20.58,41.6 13.98,93.9 -18.1,143.6 -79.84,123.7 -253.8,61.2 -255.53,60.6 -1.88,-0.7 -3.85,-1.2 -5.84,-1.3 -6.16,-0.5 -12.33,-0.8 -18.41,-0.8 -348.3,0 -540.49,830.9 -573.18,985.1 z m 595.65,-1313.1 c -128.66,0 -281.35,25.8 -417.34,154.9 -492.72,467.9 -709.75,782.5 -663.5,961.8 31.17,120.7 419.24,225.4 496.72,245.2 5.84,1.5 12.16,0.5 17.3,-2.8 5.15,-3.2 8.74,-8.4 9.91,-14.4 1.97,-10 200.69,-995.9 546.56,-972 26.71,8.8 212.8,63.5 304.87,-79.1 40.77,-63.2 48.25,-131.5 20.59,-187.4 -28.27,-57.1 -88.15,-92 -168.6,-98.3 l -15.01,-1.2 c -39.11,-3.1 -83.64,-6.7 -131.5,-6.7"
         style="fill:currentColor;fill-opacity:1;fill-rule:nonzero;stroke:none"
         id="path164" />
      <path
         d="m 4853.04,7242.9 c 951.51,348.8 1526.6,205.4 2038.95,-3.8 512.36,-209.1 1150.18,83 1150.18,83 144.86,80.2 253.92,286.9 253.92,286.9 l 802.1,-273 c -23.07,-378.4 -250.54,-937.1 -423.41,-1365.2 -172.88,-428.1 329.29,-666.8 436.3,-823.2 107.03,-156.4 -164.64,-485.7 16.47,-675.1 181.11,-189.3 131.71,-526.8 -107.02,-403.3 -238.73,123.5 -255.2,666.8 -238.73,782 16.46,115.3 -625.66,500.3 -716.21,502.2 -90.55,1.9 -186.08,-1267.3 24.7,-1226.6 280.46,54.1 452.77,-354 164.64,-362.2 -288.13,-8.2 -461,-8.3 -560.27,197.5 -99.27,205.9 -257.37,1237.5 -314.29,1392.7 -56.91,155.2 -284.57,186.2 -646.75,253.5 -362.18,67.3 -527.75,-191.4 -750.23,-398.4 -222.49,-207 -765.97,-371.4 -719.58,-565.4 37.55,-157 254.75,-374.9 336.13,-452.2 17.09,-16.2 41.06,-22.3 64.16,-17.5 174.94,35.9 457.33,-209 290.46,-331.6 -177.99,-130.7 -555.8,-67.4 -614.84,-29.5 -59.04,38 -974.17,1104.9 -565.11,1298.9 409.07,194 331.69,425.8 331.69,425.8 -15.05,112.9 -544.56,397.9 -556.69,827.6 -12.25,433.9 -164.69,438 -164.69,438 -851.59,149.7 -1797.7,2008.5 -105.73,2702.9 583.61,239.5 588.89,87.8 588.89,87.8 57.9,-250.6 -675.44,-286.7 -996.23,-673 -320.79,-386.3 -234.44,-869.5 169.39,-1332.7 416.27,-477.4 811.8,-346.1 811.8,-346.1"
         style="fill:#ffffff;fill-opacity:0;fill-rule:nonzero;stroke:none"
         id="path166" />
      <path
         d="m 6246.12,6557.1 c -379.88,41 -1443.35,1.7 -1160.04,763.6 814.96,246 1336.84,109.9 1805.92,-81.6 300.45,-122.6 644,-72.9 876.82,-10.8 140.38,-144.9 239.19,-288.3 239.19,-404.8 0,-403.6 -319.18,-719.1 -652.86,-796.8 -333.68,-77.7 -718.49,488.3 -1109.03,530.4"
         style="fill:currentColor;fill-opacity:1;fill-rule:nonzero;stroke:none"
         id="path168" />
      <path
         d="m 8446.54,5742.7 c -128.14,161.4 10.55,267.3 -18.77,376.9 -29.32,109.7 -241.08,223.2 -76.6,429.3 141.42,177.3 485.29,109.3 579.02,86.7 -78.97,-228.9 -185.4,-457.1 -255.41,-664.8 -65.08,-193 -23.81,-287.5 9.59,-363 -77.79,4.8 -214.79,105.9 -237.83,134.9"
         style="fill:currentColor;fill-opacity:1;fill-rule:nonzero;stroke:none"
         id="path170" />
      <path
         d="m 4471.82,6733.8 c 149.89,65 427.07,182.3 566.86,-66.4 149.87,-266.7 -197.76,-462.7 141.79,-500.7 602.87,-67.5 245.42,-635.1 -129.99,-546.9 -9.01,9.2 -19.06,19.1 -29.69,29.2 -88.15,100.8 -263.68,235.3 -368.53,401.5 -58.3,94.3 -99.37,199.6 -102.66,315.5 -5.64,200.2 -41.17,308.8 -77.78,367.8"
         style="fill:currentColor;fill-opacity:1;fill-rule:nonzero;stroke:none"
         id="path172" />
      <path
         d="m 4853.04,7242.9 h 0.22 z m 1766.1,-1601.4 c 37.16,0 76.53,-3.6 118.52,-11.4 l 73.02,-13.5 c 332.47,-61 533.15,-97.8 590.49,-254.2 23.54,-64.1 62.86,-268.7 108.4,-505.7 65.49,-340.6 146.98,-764.5 205.03,-884.9 91.31,-189.3 239.61,-193.6 539.7,-185.1 59.68,1.7 100.37,22 117.65,58.7 21.12,44.7 6.47,110 -37.31,166.4 -59.03,76 -148.73,110.9 -240.15,93.2 -20.54,-3.9 -50.7,-1.1 -77.57,34.7 -130.85,174.4 -68.35,1053.9 8.61,1203.8 4.13,8.1 17.46,32.6 40.54,32 84.4,-1.8 567.68,-286.6 699.55,-441.9 29.38,-34.7 41.49,-61.8 38.12,-85.5 -14.5,-101.4 -0.31,-641.7 226.95,-759.3 48.08,-24.8 113.89,-43 154.47,11.2 55.54,74.2 35.88,242.8 -73.61,357.2 -109.13,114.1 -67.45,272.5 -30.66,412.3 27.67,105.1 53.8,204.4 11.92,265.6 -25.18,36.8 -75.69,80.2 -134.18,130.4 -175.19,150.6 -439.91,378.1 -304.39,713.6 l 7.21,17.9 c 172.05,426 385.55,954.6 413.5,1323.5 l -768.47,261.6 c -29.72,-51.8 -127.43,-209.5 -253.58,-279.4 -27.91,-12.8 -653.94,-294.4 -1169.28,-84.1 -465.3,189.9 -1043.72,362.5 -2022.96,3.5 -0.2,-0.1 -0.41,-0.2 -0.63,-0.2 -16.74,-5.6 -414.39,-130.3 -835.5,352.6 -423.24,485.4 -485.08,981.6 -169.72,1361.3 160.98,193.9 424.77,302 636.76,388.9 212.39,87 380.18,155.8 354.92,265.1 -0.3,1.3 -0.5,2.7 -0.54,4.1 -0.02,-0.4 -0.74,6.1 -14.43,13.6 -32.1,17.5 -149.27,40.9 -543.91,-121.1 -886.45,-363.8 -955.26,-1005.6 -917.4,-1355.8 66.04,-610.8 541.21,-1219.9 1017.25,-1304.5 24.93,-1.8 172.18,-30.5 184.29,-459.5 7.9,-279.8 247.31,-500.7 405.72,-646.8 85.89,-79.2 143.06,-132 150.48,-176.4 7.66,-26 62.54,-258.1 -343.84,-450.8 -56.61,-26.9 -86.55,-72.7 -91.53,-140.2 -25.29,-342.4 607.75,-1085.7 659.15,-1120.1 48.78,-31.3 416.18,-98.7 589.73,28.8 42.31,31.1 52.61,71.9 30.61,121.5 -41.75,94 -193.06,193.1 -303.51,170.5 -30.69,-6.3 -61.97,2.4 -83.86,23.2 -90.14,85.5 -303.92,302 -342.42,463 -32.58,136.3 170.51,248.5 385.53,367.3 126.56,70 257.45,142.3 340.49,219.5 38.01,35.4 74.93,72.9 110.65,109.1 154.57,156.9 301.75,306.3 540.19,306.3 z M 8117.49,3739.8 c -203.73,0 -353.95,28.6 -442.77,212.7 -60.59,125.6 -139.24,534.8 -208.66,895.9 -45.16,235 -84.18,438 -106.47,498.8 -48.64,132.6 -239.95,167.7 -556.91,225.9 l -73.11,13.4 c -288.13,53.5 -448.87,-109.6 -619.07,-282.4 -36.03,-36.6 -73.3,-74.4 -112.04,-110.4 -87,-81 -220.32,-154.6 -349.24,-225.8 -191.05,-105.6 -388.6,-214.8 -363.85,-318.3 36.74,-153.6 261.75,-376.6 329.83,-441.2 11.4,-10.9 28.03,-15.3 44.45,-11.9 131.19,26.9 303.74,-85.2 352.91,-195.9 30.26,-68.2 13.91,-132 -44.88,-175.2 -184.24,-135.4 -573.19,-73.2 -639.94,-30.3 -53.73,34.5 -703.77,780.7 -679.52,1157.7 5.47,85.1 44.8,145.6 116.89,179.8 386.88,183.5 320.9,396.7 320.19,398.8 -0.46,1.4 -0.76,2.7 -0.95,4.1 -3.88,29 -68.49,88.6 -136.91,151.7 -163.9,151.2 -411.55,379.7 -419.99,678.1 -11.31,400.9 -142.4,416.5 -143.71,416.6 -0.67,0 -2,0.2 -2.65,0.3 -493.97,86.8 -986.92,714.7 -1054.92,1343.6 -39.2,362.6 31.38,1026.8 944.61,1401.6 310.92,127.6 508.76,166.5 587.99,115.4 24.79,-16 30.03,-36.4 31.16,-44.2 32.51,-145.2 -150.3,-220.1 -381.58,-314.9 -207.42,-85 -465.54,-190.8 -619.45,-376.2 -304.48,-366.6 -244.45,-829.7 169.02,-1303.9 397.82,-456.2 776.48,-343.3 787.92,-339.8 993.84,364.3 1581.63,188.9 2054.53,-4.2 497.32,-203 1126.31,79.7 1132.58,82.6 135.98,75.4 242.48,275.2 243.55,277.2 5.1,9.6 16.42,14.1 26.73,10.6 l 802.11,-273 c 9.45,-3.3 15.57,-12.4 14.97,-22.4 -22.98,-376.7 -241.88,-918.7 -417.79,-1354.2 l -7.2,-17.9 c -123.62,-306.1 116.7,-512.6 292.17,-663.4 60.87,-52.2 113.43,-97.4 141.88,-139 53.32,-77.9 24.68,-186.7 -5.64,-301.9 -35.48,-134.8 -72.17,-274.2 19.83,-370.3 128.01,-133.9 143.35,-325.9 77.05,-414.5 -45.51,-60.8 -122.15,-69.5 -210.25,-23.9 -251.49,130.1 -268.77,676.9 -250.49,804.9 0.36,2.5 0.69,16.7 -28.01,50.5 -130.96,154.3 -583.4,415 -662.66,426 -56.15,-64.1 -142.05,-903 -30.82,-1140.6 21.89,-46.8 41.42,-43 47.72,-41.8 108.11,20.9 214.06,-20.1 283.52,-109.5 53.92,-69.5 70.56,-152.9 42.4,-212.6 -24.53,-51.9 -80.11,-81.8 -156.46,-83.9 -48.41,-1.4 -94.49,-2.7 -138.07,-2.7"
         style="fill:currentColor;fill-opacity:1;fill-rule:nonzero;stroke:none"
         id="path174" />
      <path
         d="m 8915.13,8315.4 c -93.52,9.1 -319.16,24.9 -471.19,-15.9 -22.08,-5.9 -45.68,0.5 -62.39,16.1 -55.48,51.7 -179.75,175.8 -281.55,336.4 -135.46,213.6 -208.4,52.1 -234.45,-73 -23.01,-110.4 -14.86,-319.8 47.32,-513.1 15.86,-49.2 26.83,-100 32.82,-151.4 23.7,-203.6 63.81,-743.2 782.77,-743.2 0,0 668.83,-30.2 668.83,845 0,0 72.43,646 -52.1,786.7 -67.24,76 -295.84,-325.4 -366.23,-453.8 -12.63,-23 -37.68,-36.3 -63.83,-33.8"
         style="fill:#ffffff;fill-opacity:0;fill-rule:nonzero;stroke:none"
         id="path176" />
      <path
         d="m 7979.05,8733.9 c -1.99,0 -3.96,-0.2 -5.87,-0.6 -33.37,-6 -67.12,-68.4 -85.96,-158.8 -22.41,-107.5 -13.54,-314.4 46.75,-501.8 16.22,-50.4 27.56,-102.8 33.72,-155.7 l 2.1,-18.3 c 23.95,-211 80.01,-705.3 758.67,-705.3 3.44,-0.1 239.26,-8.1 423.13,168.1 148.34,142.2 223.55,362.5 223.55,654.8 0,0.9 0.05,1.7 0.13,2.5 19.84,177 50.1,660.2 -46.68,769.6 -1.55,1.7 -2.44,2.2 -5.19,1.9 -49.3,-5.5 -179.93,-187 -325.03,-451.8 -16.89,-30.8 -50.59,-48.5 -85.38,-45.2 -89.62,8.8 -314.17,24.8 -463.31,-15.2 -28.97,-7.7 -60.88,0.4 -83.24,21.3 -50.85,47.4 -180.45,175.6 -285.17,340.7 -38.58,60.9 -74.58,93.8 -102.22,93.8 z m 758.82,-1585 c -5.78,0 -9.34,0.2 -10.41,0.2 -717.22,0 -776.42,521.8 -801.69,744.6 l -2.08,18.2 c -5.84,50 -16.57,99.6 -31.9,147.3 -65.54,203.7 -70.8,414.6 -47.92,524.3 13.85,66.5 48.05,180.1 121.37,193.4 49.24,9 99.47,-28 153.46,-113.1 101.97,-160.8 228.36,-285.7 277.98,-332 11.29,-10.6 27.23,-14.7 41.53,-10.9 156.11,41.9 387.02,25.5 479.07,16.5 17.8,-1.7 33.89,7.2 42.24,22.4 115.73,211.1 271.93,464.8 358.97,474.5 16.55,1.9 32.14,-4 43.29,-16.6 127.99,-144.6 62.17,-761.9 57.66,-802.6 -0.21,-304.7 -80.21,-535.5 -237.75,-686.1 -177.52,-169.7 -393.66,-180.1 -443.82,-180.1"
         style="fill:currentColor;fill-opacity:1;fill-rule:nonzero;stroke:none"
         id="path178" />
      <path
         d="m 8731.62,20592 c -34.17,-605.3 428.79,-1123.6 1034.05,-1157.8 605.23,-34.2 1123.63,428.8 1157.83,1034.1 34.1,605.2 -428.8,1123.6 -1034.1,1157.8 -605.26,34.1 -1123.62,-428.8 -1157.78,-1034.1"
         style="fill:#ffffff;fill-opacity:0;fill-rule:nonzero;stroke:none"
         id="path180" />
      <path
         d="m 8731.62,20592 h 0.21 z m 1094.53,1013.7 c -264.4,0 -516.27,-95.9 -715.06,-273.4 -214.25,-191.4 -341.16,-454.7 -357.37,-741.5 -16.18,-286.9 80.27,-562.8 271.65,-777.1 191.37,-214.3 454.73,-341.2 741.55,-357.4 286.68,-16.2 562.78,80.3 777.08,271.7 214.2,191.3 341.1,454.7 357.3,741.5 16.2,286.8 -80.2,562.8 -271.6,777.1 -191.4,214.2 -454.7,341.2 -741.55,357.3 -20.73,1.2 -41.41,1.8 -62,1.8 z m 2.81,-2195.4 c -21.46,0 -42.93,0.6 -64.54,1.8 -298.64,16.8 -572.84,149 -772.09,372.1 -199.24,223.1 -299.69,510.4 -282.82,809.1 16.85,298.6 149,572.8 372.08,772 223.08,199.3 510.12,299.7 809.06,282.9 298.65,-16.9 572.85,-149 772.05,-372.1 199.3,-223.1 299.7,-510.4 282.9,-809.1 -16.9,-298.6 -149,-572.8 -372.1,-772.1 -207,-184.8 -469.3,-284.6 -744.54,-284.6"
         style="fill:currentColor;fill-opacity:1;fill-rule:nonzero;stroke:none"
         id="path182" />
      <path
         d="m 8837.21,20586 c -30.88,-546.9 387.48,-1015.3 934.43,-1046.2 546.96,-30.9 1015.36,387.5 1046.26,934.4 30.8,547 -387.5,1015.4 -934.46,1046.3 -546.94,30.8 -1015.35,-387.5 -1046.23,-934.5"
         style="fill:#ffffff;fill-opacity:0;fill-rule:nonzero;stroke:none"
         id="path184" />
      <path
         d="m 8951.55,20579.6 c -27.31,-483.8 342.75,-898.1 826.54,-925.4 483.81,-27.4 898.11,342.7 925.41,826.5 27.3,483.8 -342.7,898.1 -826.51,925.4 -483.8,27.3 -898.13,-342.7 -925.44,-826.5"
         style="fill:#ffffff;fill-opacity:0;fill-rule:nonzero;stroke:none"
         id="path186" />
      <path
         d="m 9828.73,19602.8 c -17.76,0 -35.57,0.5 -53.45,1.5 -247.29,14 -474.35,123.4 -639.36,308.1 -165,184.8 -248.17,422.7 -234.2,670 0.67,12.2 11.01,21.5 23.36,20.9 12.21,-0.7 21.55,-11.2 20.86,-23.4 -13.28,-235.5 65.91,-462 223.02,-638 157.12,-175.9 373.33,-280.1 608.82,-293.4 235.22,-13.2 462.02,65.9 637.92,223.1 175.9,157.1 280.1,373.3 293.4,608.8 13.3,235.5 -65.9,462 -223,637.9 -157.1,175.9 -373.3,280.1 -608.79,293.4 -293.58,16.7 -574.85,-113.3 -752.98,-347.4 -7.42,-9.7 -21.33,-11.6 -31.04,-4.2 -9.74,7.4 -11.62,21.3 -4.22,31 187.09,245.8 482.7,382.2 790.75,364.9 247.28,-14 474.38,-123.4 639.38,-308.2 165,-184.7 248.1,-422.6 234.1,-669.9 -13.9,-247.3 -123.3,-474.4 -308.1,-639.4 -171.3,-153 -388.5,-235.7 -616.47,-235.7"
         style="fill:currentColor;fill-opacity:1;fill-rule:nonzero;stroke:none"
         id="path188" />
      <path
         d="m 9782.53,20004.4 -6.86,121.5 c -85.92,-1 -170.38,17.3 -220.58,42.7 l 29.93,151.9 c 55.39,-26.4 132.39,-49 215.54,-44.3 72.92,4.1 121.22,35 118.33,86.2 -2.74,48.6 -45.41,77 -141.88,103.7 -139.49,38.3 -236.49,97 -243.49,221.1 -6.36,112.5 67.98,205.3 203.35,239.9 l -6.87,121.5 125.37,7.1 6.35,-112.6 c 85.94,1 144.48,-13.7 187.88,-31.7 l -28.9,-146.7 c -34.08,12.2 -94.6,38.3 -186.7,33.1 -83.15,-4.7 -108,-42 -105.98,-77.8 2.39,-42.3 48.67,-66.6 159.73,-101.4 155.25,-45.1 220.65,-112 227.15,-227.2 6.4,-113.8 -68.7,-215.6 -214.36,-249.5 l 7.37,-130.5 -125.38,-7"
         style="fill:currentColor;fill-opacity:1;fill-rule:nonzero;stroke:none"
         id="path190" />
      <path
         d="m 6868.76,16683.6 c -296.32,509.9 -949.93,683.1 -1459.86,386.7 -509.94,-296.3 -683.11,-949.9 -386.79,-1459.8 296.32,-510 949.93,-683.1 1459.86,-386.8 509.94,296.3 683.11,949.9 386.79,1459.9"
         style="fill:#ffffff;fill-opacity:0;fill-rule:nonzero;stroke:none"
         id="path192" />
      <path
         d="m 5943.71,17193.2 c -182.2,0 -361.96,-48 -523.69,-142 -498.56,-289.7 -668.47,-931 -378.77,-1429.6 289.74,-498.6 930.97,-668.5 1429.61,-378.8 498.55,289.8 668.47,931.1 378.76,1429.6 -140.34,241.5 -366.34,413.9 -636.37,485.5 -89.18,23.6 -179.67,35.3 -269.54,35.3 z m 3.57,-2136 c -376,0 -742.19,194.3 -944.31,542.2 -301.99,519.6 -124.88,1188.1 394.81,1490.1 251.68,146.3 545.32,185.8 826.83,111.2 281.44,-74.6 517.01,-254.3 663.3,-506 301.99,-519.7 124.87,-1188.2 -394.81,-1490.2 -171.84,-99.8 -360.08,-147.3 -545.82,-147.3"
         style="fill:currentColor;fill-opacity:1;fill-rule:nonzero;stroke:none"
         id="path194" />
      <path
         d="m 5794.85,15509.1 774.31,449.9 c 80.81,47 108.26,150.6 61.29,231.4 l -288.98,497.3 c -46.96,80.8 -150.54,108.2 -231.35,61.3 l -774.3,-450 c -80.82,-46.9 -108.26,-150.5 -61.3,-231.3 l 288.98,-497.3 c 46.96,-80.8 150.54,-108.3 231.35,-61.3"
         style="fill:#ffffff;fill-opacity:0;fill-rule:nonzero;stroke:none"
         id="path196" />
      <path
         d="m 6194.91,16749.7 c -25.09,0 -50.47,-6.4 -73.67,-19.9 l -774.32,-449.9 c -33.96,-19.7 -58.2,-51.5 -68.26,-89.5 -10.06,-38 -4.72,-77.6 15.01,-111.6 l 288.97,-497.3 c 19.75,-34 51.55,-58.2 89.51,-68.3 38.03,-10 77.64,-4.7 111.6,15 l 11.11,-19.1 -11.11,19.1 774.28,450 c 33.96,19.7 58.21,51.5 68.27,89.5 10.08,38 4.74,77.6 -14.99,111.6 l -288.97,497.3 c -27.28,46.9 -76.71,73.1 -127.43,73.1 z m -484.75,-1285.6 c -66.02,0 -130.33,34.1 -165.81,95.2 l -288.97,497.3 c -25.7,44.2 -32.64,95.7 -19.53,145.1 13.09,49.5 44.62,90.8 88.84,116.5 l 774.31,449.9 c 91.26,53.1 208.61,22 261.63,-69.3 l 288.96,-497.3 c 25.7,-44.2 32.63,-95.7 19.54,-145.2 -13.09,-49.4 -44.65,-90.7 -88.86,-116.4 l -774.29,-450 c -30.17,-17.5 -63.2,-25.8 -95.82,-25.8"
         style="fill:currentColor;fill-opacity:1;fill-rule:nonzero;stroke:none"
         id="path198" />
      <path
         d="m 5968.75,16069.4 c -3.33,0 -6.7,0.8 -9.88,2.4 -10.95,5.4 -15.38,18.7 -9.91,29.7 l 212.09,423.7 c 5.5,11 18.76,15.4 29.73,9.9 10.94,-5.5 15.38,-18.8 9.9,-29.7 l -212.09,-423.8 c -3.89,-7.7 -11.7,-12.2 -19.84,-12.2"
         style="fill:currentColor;fill-opacity:1;fill-rule:nonzero;stroke:none"
         id="path200" />
      <path
         d="m 5966.42,16068 c -0.41,0 -0.8,0 -1.21,0.1 l -473.16,25.5 c -12.22,0.7 -21.59,11.1 -20.94,23.3 0.67,12.2 11.49,21.6 23.32,20.9 l 473.16,-25.5 c 12.22,-0.7 21.58,-11.1 20.94,-23.3 -0.65,-11.8 -10.43,-21 -22.11,-21"
         style="fill:currentColor;fill-opacity:1;fill-rule:nonzero;stroke:none"
         id="path202" />
      <path
         d="m 7560.33,19738.1 c -306.97,476.6 -942.23,614.2 -1418.89,307.2 -476.65,-307 -614.21,-942.2 -307.24,-1418.9 306.98,-476.6 942.24,-614.2 1418.9,-307.2 476.65,307 614.2,942.2 307.23,1418.9"
         style="fill:#ffffff;fill-opacity:0;fill-rule:nonzero;stroke:none"
         id="path204" />
      <path
         d="m 6695.26,20187 c -190.72,0 -377.66,-54.6 -541.84,-160.3 -225.54,-145.3 -381.03,-369.7 -437.81,-631.9 -56.79,-262.2 -8.05,-530.8 137.23,-756.4 145.25,-225.5 369.65,-381 631.86,-437.8 262.17,-56.8 530.81,-8.1 756.42,137.2 465.61,299.9 600.46,922.7 300.59,1388.3 -145.25,225.6 -369.65,381 -631.87,437.8 -71.36,15.5 -143.26,23.1 -214.58,23.1 z m 4.11,-2053.8 c -74.5,0 -149.49,8 -224.03,24.1 -273.79,59.3 -508.07,221.6 -659.75,457.1 -151.68,235.5 -202.56,516 -143.29,789.8 59.29,273.8 221.64,508.1 457.15,659.7 235.5,151.7 516.04,202.6 789.76,143.3 273.78,-59.3 508.07,-221.6 659.75,-457.1 313.09,-486.2 172.29,-1136.4 -313.87,-1449.5 -171.38,-110.4 -366.63,-167.4 -565.72,-167.4"
         style="fill:currentColor;fill-opacity:1;fill-rule:nonzero;stroke:none"
         id="path206" />
      <path
         d="m 6553.01,18677.6 c 0.99,-78.9 65.8,-142.1 144.76,-141.1 78.95,0.9 142.16,65.8 141.18,144.7 -1,79 -65.8,142.2 -144.76,141.2 -78.96,-1 -142.16,-65.8 -141.18,-144.8"
         style="fill:currentColor;fill-opacity:1;fill-rule:nonzero;stroke:none"
         id="path208" />
      <path
         d="m 6949.11,18860 c 18.33,0.2 36.45,8.2 49.09,23.4 22.92,27.5 19.16,68.4 -8.38,91.3 -89.83,74.8 -191.49,113.6 -293.98,112.3 -102.49,-1.3 -203.13,-42.6 -291.07,-119.6 -26.96,-23.6 -29.69,-64.6 -6.09,-91.5 23.6,-27 64.59,-29.7 91.54,-6.1 65.31,57.1 135.03,86.6 207.25,87.5 72.21,0.9 142.65,-26.8 209.37,-82.3 12.34,-10.3 27.38,-15.2 42.27,-15"
         style="fill:currentColor;fill-opacity:1;fill-rule:nonzero;stroke:none"
         id="path210" />
      <path
         d="m 6295.17,19085.7 c 14.78,0.2 29.58,5.4 41.63,15.9 111.71,96.7 231.83,146.6 357.01,148.2 125.18,1.5 246.51,-45.3 360.6,-139.3 27.67,-22.7 68.55,-18.8 91.33,8.9 22.77,27.6 18.81,68.5 -8.85,91.3 -136.46,112.4 -290.23,170.7 -444.7,168.8 -154.47,-1.9 -306.74,-64.1 -440.34,-179.9 -27.08,-23.4 -30.02,-64.4 -6.56,-91.5 13.02,-15 31.44,-22.6 49.88,-22.4"
         style="fill:currentColor;fill-opacity:1;fill-rule:nonzero;stroke:none"
         id="path212" />
      <path
         d="m 6141.99,19317.7 c 14.98,0.2 29.96,5.6 42.07,16.2 157.96,139.4 328.22,211.1 506.03,213.3 177.82,2.3 349.81,-65.2 511.2,-200.5 27.46,-23 68.38,-19.5 91.4,8 23.02,27.5 19.42,68.4 -8.03,91.4 -89.89,75.4 -185.12,133.2 -283.05,172 -102.05,40.4 -207.41,60.2 -313.14,58.9 -105.74,-1.3 -210.56,-23.8 -311.57,-66.7 -96.93,-41.2 -190.68,-101.4 -278.66,-179 -26.88,-23.7 -29.45,-64.7 -5.74,-91.6 13.01,-14.8 31.25,-22.2 49.49,-22"
         style="fill:currentColor;fill-opacity:1;fill-rule:nonzero;stroke:none"
         id="path214" />
      <path
         d="m 6347.34,11756.4 c -9.56,0 -18.38,6.3 -21.24,15.9 -3.48,11.7 3.23,24.1 14.95,27.5 85.31,25.3 174.45,42.3 264.96,50.5 12.05,1.1 22.95,-7.9 24.05,-20.1 1.11,-12.1 -7.89,-22.9 -20.07,-24 -87.58,-7.9 -173.83,-24.4 -256.35,-48.8 -2.1,-0.7 -4.22,-1 -6.3,-1 z m 786.62,-1.6 c -2.01,0 -4.09,0.2 -6.14,0.8 -83.97,24.3 -170.32,40.8 -256.63,49.4 -12.18,1.1 -21.07,12 -19.88,24.2 1.21,12.1 11.83,21.1 24.2,19.8 89.02,-8.7 178.03,-25.8 264.6,-50.8 11.74,-3.4 18.53,-15.7 15.13,-27.4 -2.78,-9.7 -11.65,-16 -21.28,-16 z m 473.98,-234.3 c -4.56,0 -9.15,1.4 -13.11,4.3 -70.51,51.9 -145.64,97.7 -223.29,136.2 -10.97,5.4 -15.47,18.7 -10.04,29.7 5.43,10.9 18.67,15.4 29.68,10 79.97,-39.6 157.32,-86.8 229.91,-140.3 9.87,-7.2 11.97,-21.1 4.72,-30.9 -4.35,-5.9 -11.05,-9 -17.87,-9 z M 5885.83,11502 c -6.08,0 -12.14,2.4 -16.51,7.3 -8.16,9.1 -7.38,23.1 1.73,31.3 66.49,59.6 140.78,112 220.72,155.8 10.75,5.9 24.19,1.9 30.07,-8.8 5.88,-10.7 1.95,-24.2 -8.78,-30.1 -76.99,-42.1 -148.48,-92.6 -212.46,-149.9 -4.22,-3.8 -9.5,-5.6 -14.77,-5.6 z m -298.04,-433.9 c -2.64,0 -5.32,0.5 -7.94,1.5 -11.42,4.3 -17.13,17.1 -12.74,28.6 32.66,85 74.86,165.6 125.42,239.3 6.94,10.1 20.7,12.7 30.8,5.8 10.1,-7 12.66,-20.7 5.75,-30.8 -48.62,-70.9 -89.2,-148.4 -120.61,-230.2 -3.38,-8.8 -11.79,-14.2 -20.68,-14.2 z m -83.67,-521.2 c -11.94,0 -21.81,9.5 -22.13,21.6 -0.39,14.6 -0.58,29.1 -0.6,43.5 0,77 5.69,152.8 16.91,225.3 1.86,12.1 13.17,20.4 25.29,18.5 12.09,-1.9 20.37,-13.2 18.49,-25.3 -10.88,-70.2 -16.4,-143.7 -16.4,-218.4 0.03,-14 0.22,-28.2 0.61,-42.4 0.33,-12.3 -9.32,-22.4 -21.54,-22.8 -0.22,0 -0.41,0 -0.63,0 z M 5608.1,10029 c -8.63,0 -16.85,5.1 -20.42,13.6 -33.64,80 -59.64,166.9 -77.26,258.4 -2.3,12 5.55,23.6 17.56,25.9 12.09,2.4 23.62,-5.5 25.96,-17.5 17.04,-88.5 42.13,-172.5 74.58,-249.6 4.74,-11.3 -0.56,-24.3 -11.83,-29 -2.81,-1.2 -5.71,-1.8 -8.59,-1.8 z m 2469,-20.7 c -5.25,0 -10.51,1.8 -14.73,5.6 -9.13,8.1 -9.95,22.1 -1.82,31.2 57.69,64.8 113.87,133.6 167.02,204.4 7.35,9.7 21.24,11.7 31.01,4.4 9.78,-7.4 11.75,-21.3 4.42,-31 -53.88,-71.8 -110.86,-141.5 -169.35,-207.2 -4.37,-4.9 -10.45,-7.4 -16.55,-7.4 z m -398.86,-348.6 c -7.31,0 -14.45,3.6 -18.68,10.2 -6.58,10.3 -3.57,24 6.74,30.6 74.53,47.7 145.04,100.6 209.65,157.4 9.13,8.1 23.15,7.3 31.26,-1.9 8.07,-9.2 7.18,-23.2 -2.01,-31.3 -66.28,-58.3 -138.64,-112.7 -215.06,-161.5 -3.68,-2.4 -7.81,-3.5 -11.9,-3.5 z m -1752.6,-49.1 c -4.73,0 -9.51,1.5 -13.56,4.7 -71.66,55.6 -135.62,120.4 -190.14,192.6 -7.37,9.8 -5.43,23.7 4.33,31 9.78,7.4 23.64,5.5 31.02,-4.3 52.15,-69.1 113.37,-131.1 181.96,-184.3 9.67,-7.5 11.42,-21.4 3.92,-31.1 -4.37,-5.6 -10.9,-8.6 -17.53,-8.6 z M 7195.61,9441 c -9.6,0 -18.43,6.3 -21.26,15.9 -3.44,11.8 3.31,24.1 15.05,27.5 83.76,24.5 166.56,55.2 246.14,91.2 11.14,5 24.27,0.1 29.31,-11.1 5.04,-11.1 0.09,-24.2 -11.05,-29.3 -81.44,-36.8 -166.24,-68.2 -251.98,-93.3 -2.08,-0.6 -4.15,-0.9 -6.21,-0.9 z m -788.56,-44.3 c -1.45,0 -2.92,0.1 -4.42,0.4 -90.72,18.3 -177.43,45.5 -257.75,80.6 -11.21,4.9 -16.31,18 -11.4,29.2 4.88,11.2 17.91,16.3 29.18,11.4 77.42,-33.9 161.1,-60 248.76,-77.7 11.98,-2.5 19.75,-14.2 17.33,-26.1 -2.13,-10.6 -11.39,-17.8 -21.7,-17.8 z m 293.32,-28.5 c -9.95,0 -19.88,0.1 -29.83,0.3 -12.22,0.2 -21.96,10.3 -21.75,22.5 0.22,12.1 10.11,21.8 22.16,21.8 0.13,0 0.26,0 0.41,0 85.52,-1.6 173.57,3.9 261.54,16.2 12.07,1.8 23.3,-6.7 25.01,-18.8 1.7,-12.1 -6.75,-23.3 -18.87,-25 -80.06,-11.3 -160.37,-17 -238.67,-17"
         style="fill:currentColor;fill-opacity:1;fill-rule:nonzero;stroke:none"
         id="path216" />
      <path
         d="m 8736.07,14000.3 c -10.12,0 -19.27,7 -21.59,17.3 -18.62,82.7 -39.15,169.6 -61.06,258.1 -2.94,11.9 4.3,23.9 16.18,26.9 11.79,2.9 23.88,-4.3 26.82,-16.2 21.98,-88.9 42.59,-176 61.29,-259.1 2.68,-11.9 -4.83,-23.8 -16.75,-26.5 -1.64,-0.3 -3.29,-0.5 -4.89,-0.5 z m 103.18,-521.4 c -10.62,0 -20.01,7.6 -21.82,18.5 -14.19,84.4 -30.31,172.1 -47.89,260.7 -2.41,12 5.4,23.7 17.39,26.1 12.15,2.4 23.69,-5.4 26.04,-17.4 17.69,-89.1 33.9,-177.2 48.15,-262.1 2.03,-12.1 -6.12,-23.5 -18.17,-25.5 -1.25,-0.2 -2.49,-0.3 -3.7,-0.3 z m 69.85,-526.9 c -11.29,0 -20.96,8.6 -22.02,20 -8.07,85.7 -18.17,174.2 -30.04,263.3 -1.63,12.1 6.9,23.2 19.03,24.9 12.13,1.7 23.25,-6.9 24.88,-19.1 11.94,-89.6 22.1,-178.7 30.21,-264.9 1.17,-12.2 -7.79,-23 -19.96,-24.1 -0.72,-0.1 -1.41,-0.1 -2.1,-0.1 z m 26.02,-530.8 c -12.22,0 -22.15,9.9 -22.15,22.1 -0.04,86.3 -2.31,175.3 -6.77,264.6 -0.6,12.2 8.8,22.6 21.03,23.2 12.2,0.5 22.6,-8.8 23.23,-21 4.48,-90 6.77,-179.8 6.81,-266.8 0,-12.2 -9.91,-22.1 -22.13,-22.1 -0.02,0 -0.02,0 -0.02,0 z m -29.85,-530.5 c -0.87,0 -1.73,0 -2.59,0.1 -12.16,1.5 -20.86,12.5 -19.43,24.6 10.06,85.7 17.65,174.4 22.58,263.5 0.67,12.2 11.49,21.5 23.32,20.9 12.22,-0.7 21.59,-11.2 20.9,-23.4 -4.96,-90 -12.63,-179.5 -22.8,-266.1 -1.32,-11.3 -10.9,-19.6 -21.98,-19.6 z m -98.03,-522 c -1.88,0 -3.79,0.2 -5.69,0.7 -11.81,3.2 -18.88,15.3 -15.75,27.1 22.13,83.7 41.6,170.4 57.89,257.7 2.22,12 13.64,20 25.85,17.7 12.02,-2.3 19.94,-13.8 17.71,-25.9 -16.5,-88.3 -36.21,-176 -58.62,-260.8 -2.61,-9.9 -11.59,-16.5 -21.39,-16.5 z m -175.99,-500.8 c -3.01,0 -6.08,0.6 -9.02,1.9 -11.17,5 -16.19,18.1 -11.19,29.3 35.48,79.4 68.27,161.9 97.43,245.1 4.03,11.5 16.68,17.6 28.23,13.6 11.53,-4.1 17.61,-16.7 13.56,-28.3 -29.55,-84.3 -62.79,-167.9 -98.77,-248.5 -3.67,-8.2 -11.76,-13.1 -20.24,-13.1"
         style="fill:currentColor;fill-opacity:1;fill-rule:nonzero;stroke:none"
         id="path218" />
      <path
         d="m 6664.22,17532.3 c -5.67,0 -11.33,2.2 -15.66,6.5 -64.29,64.3 -128.47,126.2 -190.79,184.1 -8.95,8.3 -9.47,22.3 -1.14,31.3 8.3,9 22.34,9.5 31.29,1.1 62.71,-58.2 127.29,-120.5 191.96,-185.2 8.66,-8.6 8.66,-22.6 0,-31.3 -4.33,-4.3 -9.99,-6.5 -15.66,-6.5 z m 364.1,-387.5 c -6.13,0 -12.21,2.5 -16.6,7.4 -58.9,66.6 -119.01,132.5 -178.69,196.1 -8.37,8.9 -7.92,22.9 0.99,31.3 8.96,8.3 22.95,7.9 31.33,-1 59.94,-63.9 120.35,-130.2 179.56,-197 8.11,-9.2 7.24,-23.2 -1.91,-31.3 -4.22,-3.7 -9.45,-5.5 -14.68,-5.5 z m 341.33,-407.6 c -6.55,0 -13.02,2.8 -17.39,8.4 -54.34,68.6 -110.64,137.8 -167.4,205.6 -7.85,9.4 -6.62,23.4 2.77,31.2 9.37,7.9 23.38,6.6 31.19,-2.8 57.02,-68.1 113.61,-137.6 168.18,-206.5 7.59,-9.6 5.97,-23.6 -3.63,-31.2 -4.07,-3.2 -8.91,-4.7 -13.72,-4.7 z m 317.94,-426.5 c -6.99,0 -13.87,3.3 -18.17,9.4 -49.73,71.1 -102.04,143.5 -155.48,215.1 -7.32,9.8 -5.31,23.7 4.52,31 9.75,7.3 23.68,5.3 30.99,-4.5 53.71,-72 106.28,-144.7 156.27,-216.2 7,-10 4.56,-23.8 -5.46,-30.8 -3.87,-2.7 -8.28,-4 -12.67,-4 z m 289.84,-445.8 c -7.53,0 -14.89,3.9 -19.02,10.8 -44.28,73.9 -91.54,149.5 -140.54,224.7 -6.68,10.3 -3.78,24 6.47,30.7 10.25,6.7 23.99,3.8 30.65,-6.5 49.3,-75.7 96.87,-151.8 141.41,-226.1 6.29,-10.5 2.87,-24.1 -7.62,-30.4 -3.57,-2.2 -7.48,-3.2 -11.35,-3.2 z m 251.94,-468.1 c -8.32,0 -16.27,4.7 -20.06,12.7 -36.19,76.6 -76.49,156 -119.75,236.1 -5.82,10.7 -1.8,24.2 8.96,30 10.77,5.8 24.2,1.8 30.02,-9 43.63,-80.7 84.28,-160.9 120.83,-238.1 5.21,-11.1 0.5,-24.3 -10.56,-29.5 -3.07,-1.5 -6.29,-2.2 -9.44,-2.2"
         style="fill:currentColor;fill-opacity:1;fill-rule:nonzero;stroke:none"
         id="path220" />
      <path
         d="m 7096.67,10688.3 c 0,-223.8 -181.41,-405.2 -405.21,-405.2 -223.78,0 -405.2,181.4 -405.2,405.2 0,223.8 181.42,405.2 405.2,405.2 223.8,0 405.21,-181.4 405.21,-405.2 z m -326.5,814.3 h -157.41 l -37.82,-167.7 c -36.45,-6.6 -71.89,-16 -105.98,-28.2 l -116.47,126.1 -136.32,-78.7 51.1,-164.1 c -27.91,-23.7 -53.82,-49.6 -77.45,-77.5 l -164.19,51.1 -78.71,-136.3 126.17,-116.5 c -12.26,-34.1 -21.67,-69.5 -28.2,-106 l -167.71,-37.8 v -157.4 l 167.71,-37.8 c 6.53,-36.5 15.94,-71.9 28.2,-106 l -126.16,-116.5 78.7,-136.3 164.19,51.1 c 23.63,-27.9 49.54,-53.8 77.45,-77.4 l -51.1,-164.2 136.32,-78.7 116.47,126.1 c 34.09,-12.2 69.53,-21.6 105.98,-28.2 l 37.82,-167.7 h 157.41 l 37.83,167.7 c 36.44,6.6 71.88,16 105.97,28.2 l 116.48,-126.1 136.32,78.7 -51.1,164.2 c 27.91,23.6 53.82,49.5 77.45,77.4 l 164.18,-51.1 78.71,136.3 -126.17,116.5 c 12.27,34.1 21.68,69.5 28.2,106 l 167.71,37.8 v 157.4 l -167.71,37.8 c -6.52,36.5 -15.93,71.9 -28.2,106 l 126.17,116.5 -78.71,136.3 -164.18,-51.1 c -23.63,27.9 -49.54,53.8 -77.45,77.5 l 51.1,164.1 -136.32,78.7 -116.48,-126.1 c -34.09,12.2 -69.53,21.7 -105.97,28.2 l -37.83,167.7"
         style="fill:#ffffff;fill-opacity:0;fill-rule:nonzero;stroke:none"
         id="path222" />
      <path
         d="m 6691.47,11071.4 c -211.22,0 -383.06,-171.9 -383.06,-383.1 0,-211.2 171.84,-383.1 383.06,-383.1 211.21,0 383.05,171.9 383.05,383.1 0,211.2 -171.84,383.1 -383.05,383.1 z m 0,-810.5 c -235.64,0 -427.36,191.8 -427.36,427.4 0,235.6 191.72,427.4 427.36,427.4 235.63,0 427.35,-191.8 427.35,-427.4 0,-235.6 -191.72,-427.4 -427.35,-427.4 z m -61,-364.7 h 121.98 l 33.94,150.4 c 1.97,8.7 8.94,15.4 17.7,16.9 35.26,6.3 69.71,15.5 102.37,27.3 8.38,3 17.76,0.7 23.78,-5.8 l 104.48,-113.2 105.65,61 -45.86,147.3 c -2.64,8.5 0.06,17.7 6.85,23.5 26.82,22.7 52.02,47.9 74.87,74.8 5.75,6.8 15.03,9.5 23.47,6.9 l 147.29,-45.9 60.99,105.7 -113.17,104.4 c -6.53,6 -8.82,15.4 -5.82,23.8 11.77,32.7 20.94,67.1 27.26,102.4 1.58,8.7 8.24,15.7 16.93,17.7 l 150.43,33.9 v 122 l -150.43,33.9 c -8.69,2 -15.35,9 -16.93,17.7 -6.32,35.3 -15.49,69.7 -27.26,102.4 -3,8.4 -0.71,17.7 5.82,23.8 l 113.17,104.5 -60.99,105.6 -147.29,-45.9 c -8.44,-2.6 -17.72,0.1 -23.47,6.9 -22.85,26.9 -48.02,52.1 -74.87,74.8 -6.79,5.8 -9.49,15 -6.85,23.5 l 45.86,147.3 -105.65,61 -104.48,-113.1 c -6.02,-6.6 -15.32,-8.9 -23.78,-5.9 -32.7,11.8 -67.13,21 -102.35,27.3 -8.78,1.5 -15.75,8.2 -17.72,16.9 l -33.94,150.4 h -121.98 l -33.91,-150.4 c -1.97,-8.7 -8.94,-15.4 -17.72,-16.9 -35.26,-6.3 -69.69,-15.5 -102.38,-27.3 -8.35,-3 -17.76,-0.7 -23.77,5.9 l -104.46,113.1 -105.65,-61 45.84,-147.3 c 2.64,-8.5 -0.06,-17.7 -6.83,-23.5 -26.94,-22.8 -52.11,-47.9 -74.85,-74.8 -5.75,-6.8 -15.03,-9.5 -23.49,-6.9 l -147.31,45.9 -60.97,-105.7 113.15,-104.4 c 6.53,-6.1 8.82,-15.4 5.82,-23.8 -11.79,-32.7 -20.94,-67.2 -27.24,-102.4 -1.55,-8.7 -8.24,-15.7 -16.93,-17.7 l -150.43,-33.9 v -122 l 150.43,-33.9 c 8.69,-2 15.38,-9 16.93,-17.7 6.3,-35.2 15.45,-69.7 27.24,-102.4 3,-8.4 0.71,-17.7 -5.82,-23.8 l -113.15,-104.4 60.97,-105.7 147.31,45.9 c 8.46,2.6 17.74,-0.1 23.49,-6.9 22.74,-26.9 47.91,-52.1 74.85,-74.8 6.77,-5.8 9.47,-15 6.83,-23.5 l -45.84,-147.3 105.65,-61 104.46,113.2 c 6.01,6.5 15.42,8.8 23.77,5.8 32.67,-11.8 67.1,-21 102.4,-27.3 8.76,-1.5 15.73,-8.2 17.7,-16.9 z m 139.7,-44.3 h -157.41 c -10.36,0 -19.34,7.1 -21.61,17.3 l -34.61,153.5 c -27.73,5.6 -54.92,12.8 -81.14,21.5 l -106.64,-115.5 c -7.03,-7.6 -18.43,-9.3 -27.34,-4.1 l -136.32,78.7 c -8.98,5.2 -13.15,15.9 -10.08,25.8 l 46.79,150.3 c -20.92,18.5 -40.78,38.4 -59.25,59.2 l -150.36,-46.7 c -9.8,-3.1 -20.57,1.1 -25.76,10 l -78.7,136.3 c -5.17,9 -3.44,20.4 4.16,27.4 l 115.51,106.6 c -8.79,26.3 -16.01,53.5 -21.57,81.2 l -153.52,34.6 c -10.1,2.3 -17.28,11.2 -17.28,21.6 v 157.4 c 0,10.4 7.18,19.3 17.28,21.6 l 153.52,34.6 c 5.56,27.7 12.78,54.9 21.57,81.2 L 5931.9,11011 c -7.6,7 -9.33,18.4 -4.16,27.4 l 78.7,136.3 c 5.17,9 15.92,13.1 25.76,10.1 l 150.36,-46.9 c 18.47,20.9 38.33,40.8 59.25,59.3 l -46.79,150.4 c -3.07,9.8 1.1,20.5 10.08,25.7 l 136.32,78.7 c 8.93,5.2 20.31,3.5 27.34,-4.1 l 106.64,-115.5 c 26.24,8.7 53.43,16 81.14,21.5 l 34.61,153.6 c 2.27,10.1 11.25,17.2 21.61,17.2 h 157.41 c 10.36,0 19.34,-7.1 21.61,-17.2 l 34.63,-153.6 c 27.69,-5.5 54.88,-12.8 81.12,-21.5 l 106.66,115.5 c 7.03,7.6 18.43,9.3 27.34,4.1 l 136.32,-78.7 c 8.98,-5.2 13.15,-15.9 10.08,-25.7 l -46.81,-150.4 c 20.88,-18.5 40.73,-38.3 59.27,-59.3 l 150.34,46.9 c 9.84,3 20.57,-1.2 25.76,-10.1 l 78.72,-136.3 c 5.17,-9 3.43,-20.4 -4.16,-27.4 l -115.53,-106.6 c 8.78,-26.3 16.01,-53.5 21.56,-81.2 l 153.55,-34.6 c 10.1,-2.3 17.28,-11.2 17.28,-21.6 v -157.4 c 0,-10.4 -7.18,-19.3 -17.28,-21.6 l -153.55,-34.6 c -5.55,-27.7 -12.78,-54.9 -21.56,-81.2 l 115.53,-106.6 c 7.59,-7 9.33,-18.4 4.16,-27.4 l -78.72,-136.3 c -5.19,-8.9 -15.96,-13.1 -25.76,-10 l -150.34,46.8 c -18.54,-21 -38.39,-40.8 -59.27,-59.3 l 46.81,-150.4 c 3.07,-9.8 -1.1,-20.5 -10.08,-25.7 l -136.32,-78.7 c -8.98,-5.2 -20.33,-3.5 -27.34,4.1 l -106.66,115.5 c -26.24,-8.7 -53.41,-15.9 -81.12,-21.5 l -34.63,-153.5 c -2.27,-10.2 -11.25,-17.3 -21.61,-17.3"
         style="fill:currentColor;fill-opacity:1;fill-rule:nonzero;stroke:none"
         id="path224" />
      <path
         d="m 6476.87,12952.2 c 0,-382.9 -310.44,-693.4 -693.38,-693.4 -382.95,0 -693.39,310.5 -693.39,693.4 0,382.9 310.44,693.4 693.38,693.4 382.95,0 693.39,-310.5 693.39,-693.4 z m -558.71,1393.4 H 5648.8 l -64.72,-287 c -62.38,-11.2 -123.01,-27.2 -181.36,-48.2 l -199.3,215.8 -233.26,-134.6 87.44,-281 c -47.77,-40.4 -92.09,-84.8 -132.53,-132.5 l -280.96,87.4 -134.68,-233.2 215.9,-199.3 c -20.99,-58.4 -37.1,-119 -48.26,-181.4 l -286.98,-64.7 v -269.4 l 286.98,-64.7 c 11.16,-62.4 27.27,-123 48.26,-181.4 l -215.9,-199.3 134.68,-233.2 280.96,87.4 c 40.44,-47.8 84.76,-92.1 132.53,-132.5 l -87.44,-281 233.26,-134.7 199.3,215.9 c 58.35,-21 118.99,-37.1 181.36,-48.2 l 64.72,-287 h 269.36 l 64.73,287 c 62.37,11.1 123.01,27.2 181.35,48.2 l 199.3,-215.9 233.27,134.7 -87.44,281 c 47.76,40.4 92.1,84.7 132.53,132.5 l 280.96,-87.4 134.67,233.2 -215.89,199.3 c 21,58.4 37.1,119 48.26,181.4 l 286.98,64.7 v 269.4 l -286.98,64.7 c -11.16,62.4 -27.26,123 -48.26,181.4 l 215.89,199.3 -134.67,233.2 -280.96,-87.4 c -40.43,47.7 -84.77,92.1 -132.53,132.5 l 87.44,281 -233.27,134.6 -199.3,-215.8 c -58.34,21 -118.98,37 -181.35,48.2 l -64.73,287"
         style="fill:#ffffff;fill-opacity:0;fill-rule:nonzero;stroke:none"
         id="path226" />
      <path
         d="m 5783.49,13623.4 c -179.31,0 -347.86,-69.8 -474.63,-196.6 -126.78,-126.7 -196.61,-295.3 -196.61,-474.6 0,-370.1 301.1,-671.2 671.24,-671.2 370.13,0 671.23,301.1 671.23,671.2 0,370.1 -301.1,671.2 -671.23,671.2 z m 0,-1386.7 c -394.55,0 -715.54,321 -715.54,715.5 0,191.1 74.43,370.8 209.56,506 135.15,135.1 314.84,209.5 505.98,209.5 0,0 -0.03,0 0,0 394.55,0 715.53,-321 715.53,-715.5 0,-394.5 -320.98,-715.5 -715.53,-715.5 z M 5666.53,11581 h 233.91 l 60.83,269.7 c 1.97,8.6 8.94,15.3 17.72,16.9 61.17,10.9 120.98,26.9 177.74,47.3 8.37,3 17.76,0.7 23.77,-5.8 l 187.31,-202.9 202.6,116.9 -82.2,264.1 c -2.64,8.5 0.06,17.8 6.85,23.5 46.64,39.5 90.36,83.2 129.92,129.9 5.78,6.8 15.08,9.5 23.49,6.9 l 264.07,-82.2 116.97,202.6 -202.91,187.3 c -6.53,6 -8.82,15.4 -5.79,23.7 20.42,56.8 36.34,116.6 47.28,177.8 1.58,8.8 8.24,15.7 16.94,17.7 l 269.7,60.8 v 234 l -269.7,60.8 c -8.7,2 -15.36,8.9 -16.94,17.7 -10.94,61.2 -26.86,121 -47.28,177.8 -3.03,8.3 -0.74,17.7 5.79,23.7 l 202.91,187.3 -116.97,202.6 -264.07,-82.2 c -8.41,-2.6 -17.71,0.1 -23.49,6.9 -39.48,46.6 -83.19,90.3 -129.94,129.9 -6.77,5.7 -9.47,15 -6.83,23.5 l 82.2,264 -202.6,117 -187.31,-202.9 c -6.01,-6.5 -15.33,-8.8 -23.77,-5.8 -56.76,20.4 -116.57,36.4 -177.74,47.3 -8.78,1.6 -15.75,8.2 -17.72,16.9 l -60.83,269.7 h -233.91 l -60.85,-269.7 c -1.97,-8.7 -8.94,-15.3 -17.72,-16.9 -61.15,-10.9 -120.96,-26.9 -177.74,-47.3 -8.46,-3 -17.76,-0.7 -23.77,5.8 l -187.28,202.9 -202.6,-117 82.18,-264 c 2.63,-8.5 -0.07,-17.8 -6.84,-23.5 -46.7,-39.5 -90.42,-83.2 -129.92,-129.9 -5.75,-6.8 -15.03,-9.5 -23.49,-6.9 l -264.08,82.2 -116.95,-202.6 202.9,-187.3 c 6.53,-6 8.82,-15.4 5.79,-23.8 -20.42,-56.7 -36.34,-116.5 -47.28,-177.7 -1.58,-8.8 -8.25,-15.7 -16.94,-17.7 l -269.69,-60.8 v -234 l 269.69,-60.8 c 8.69,-2 15.36,-8.9 16.94,-17.7 10.94,-61.2 26.86,-121 47.28,-177.8 3.03,-8.3 0.74,-17.7 -5.79,-23.7 l -202.9,-187.3 116.95,-202.6 264.08,82.2 c 8.46,2.6 17.74,-0.1 23.49,-6.9 39.54,-46.7 83.26,-90.4 129.92,-129.9 6.77,-5.8 9.47,-15 6.84,-23.5 l -82.18,-264.1 202.6,-116.9 187.28,202.9 c 6.01,6.5 15.31,8.8 23.77,5.8 56.78,-20.4 116.59,-36.4 177.74,-47.3 8.78,-1.6 15.75,-8.3 17.72,-16.9 z m 251.63,-44.3 h -269.35 c -10.36,0 -19.34,7.1 -21.61,17.2 l -61.52,272.8 c -53.62,10.3 -106.16,24.2 -156.59,41.6 l -189.4,-205.2 c -7.01,-7.6 -18.41,-9.3 -27.34,-4.1 l -233.27,134.6 c -8.98,5.2 -13.15,15.9 -10.08,25.8 l 83.1,267.1 c -40.64,35.3 -79.01,73.6 -114.36,114.3 l -267.06,-83.1 c -9.86,-3.1 -20.57,1.1 -25.76,10.1 l -134.68,233.3 c -5.16,8.9 -3.43,20.3 4.16,27.3 l 205.19,189.4 c -17.37,50.4 -31.34,102.9 -41.64,156.6 l -272.73,61.5 c -10.09,2.3 -17.28,11.3 -17.28,21.6 v 269.4 c 0,10.3 7.19,19.3 17.28,21.6 l 272.73,61.5 c 10.3,53.6 24.27,106.2 41.64,156.6 L 4494.4,13516 c -7.59,7 -9.32,18.4 -4.16,27.3 l 134.68,233.3 c 5.17,9 15.88,13.2 25.76,10.1 l 267.06,-83.1 c 35.33,40.6 73.7,79 114.36,114.3 L 4949,14085 c -3.07,9.9 1.1,20.6 10.08,25.8 l 233.27,134.6 c 8.93,5.2 20.33,3.5 27.34,-4.1 l 189.4,-205.2 c 50.43,17.4 102.97,31.3 156.59,41.6 l 61.52,272.8 c 2.27,10.1 11.25,17.2 21.61,17.2 h 269.35 c 10.37,0 19.34,-7.1 21.61,-17.2 l 61.5,-272.8 c 53.64,-10.3 106.19,-24.2 156.59,-41.6 l 189.42,205.2 c 7.03,7.6 18.43,9.3 27.34,4.1 l 233.27,-134.6 c 8.98,-5.2 13.15,-15.9 10.08,-25.8 l -83.13,-267.1 c 40.71,-35.3 79.09,-73.7 114.39,-114.3 l 267.06,83.1 c 9.84,3 20.59,-1.1 25.76,-10.1 l 134.67,-233.3 c 5.17,-8.9 3.45,-20.3 -4.15,-27.3 l -205.19,-189.4 c 17.37,-50.4 31.34,-103 41.64,-156.6 l 272.72,-61.5 c 10.11,-2.3 17.29,-11.3 17.29,-21.6 v -269.4 c 0,-10.3 -7.18,-19.3 -17.29,-21.6 l -272.72,-61.5 c -10.3,-53.6 -24.27,-106.2 -41.64,-156.6 l 205.19,-189.4 c 7.6,-7 9.32,-18.4 4.15,-27.3 l -134.67,-233.3 c -5.19,-9 -15.99,-13.1 -25.76,-10.1 l -267.06,83.1 c -35.37,-40.7 -73.76,-79.1 -114.39,-114.3 l 83.13,-267.1 c 3.07,-9.9 -1.1,-20.6 -10.08,-25.8 L 6374.62,11659 c -8.98,-5.2 -20.33,-3.5 -27.34,4.1 l -189.42,205.2 c -50.4,-17.4 -102.95,-31.3 -156.59,-41.6 l -61.5,-272.8 c -2.27,-10.1 -11.24,-17.2 -21.61,-17.2"
         style="fill:currentColor;fill-opacity:1;fill-rule:nonzero;stroke:none"
         id="path228" />
      <path
         d="m 9679.84,15061.6 h 3552.96 c 107.4,0 169.1,87.1 137.8,194.5 l -684.1,2348.5 c -31.3,107.4 -143.7,194.4 -251.1,194.4 H 8882.41 c -107.39,0 -169.09,-87 -137.81,-194.4 l 684.14,-2348.5 c 31.28,-107.4 143.71,-194.5 251.1,-194.5"
         style="fill:#ffffff;fill-opacity:0;fill-rule:nonzero;stroke:none"
         id="path230" />
      <path
         d="m 8882.41,17776.9 c -43.31,0 -79.24,-16.1 -101.15,-45.3 -23.49,-31.3 -28.97,-74.2 -15.4,-120.8 l 684.15,-2348.5 c 28.66,-98.5 131.78,-178.5 229.83,-178.5 h 3552.96 c 43.3,0 79.3,16.1 101.2,45.3 23.5,31.3 28.9,74.2 15.3,120.8 l -684.1,2348.5 c -28.6,98.4 -131.8,178.5 -229.8,178.5 z M 13232.8,15039.5 H 9679.84 c -116.4,0 -238.57,94.4 -272.36,210.4 l -684.15,2348.5 c -17.56,60.3 -9.58,117 22.48,159.8 30.49,40.6 79.01,63 136.6,63 h 3552.99 c 116.4,0 238.6,-94.4 272.3,-210.4 l 684.2,-2348.5 c 17.5,-60.3 9.6,-117.1 -22.5,-159.8 -30.5,-40.6 -79,-63 -136.6,-63"
         style="fill:currentColor;fill-opacity:1;fill-rule:nonzero;stroke:none"
         id="path232" />
      <path
         d="m 9564.31,17464.1 c -6.32,0 -14.97,-1.5 -20.18,-8.4 -4.57,-6.1 -5.46,-15.1 -2.49,-25.2 l 57.11,-196 c 7.26,-25 34.17,-46.1 58.76,-46.1 h 195.99 c 6.33,0 14.96,1.5 20.18,8.5 4.56,6 5.45,15 2.48,25.2 l -57.08,196 c -7.27,24.9 -34.18,46 -58.77,46 z m 289.19,-319.9 h -195.99 c -44.08,0 -88.57,34.2 -101.29,77.9 l -57.11,196 c -6.85,23.5 -3.37,46.9 9.59,64.2 12.45,16.6 32.72,26.1 55.61,26.1 h 196 c 44.06,0 88.58,-34.2 101.3,-77.9 l 57.08,-196 c 6.86,-23.6 3.38,-47 -9.58,-64.2 -12.46,-16.6 -32.73,-26.1 -55.61,-26.1"
         style="fill:currentColor;fill-opacity:1;fill-rule:nonzero;stroke:none"
         id="path234" />
      <path
         d="m 9155.26,17464.1 c -6.33,0 -14.97,-1.5 -20.18,-8.4 -4.56,-6.1 -5.45,-15.1 -2.49,-25.2 l 57.09,-196 c 7.26,-25 34.18,-46.1 58.77,-46.1 h 196 c 6.32,0 14.94,1.5 20.18,8.5 4.56,6 5.45,15 2.49,25.2 l -57.11,196 c -7.27,24.9 -34.18,46 -58.77,46 z m 289.19,-319.9 h -196 c -44.08,0 -88.58,34.2 -101.3,77.9 l -57.08,196 c -6.86,23.5 -3.38,46.9 9.58,64.2 12.46,16.6 32.73,26.1 55.61,26.1 h 195.98 c 44.06,0 88.58,-34.2 101.3,-77.9 l 57.1,-196 c 6.86,-23.6 3.38,-47 -9.58,-64.2 -12.46,-16.6 -32.73,-26.1 -55.61,-26.1"
         style="fill:currentColor;fill-opacity:1;fill-rule:nonzero;stroke:none"
         id="path236" />
      <path
         d="m 9694.81,17016.1 c -6.32,0 -14.97,-1.4 -20.19,-8.4 -4.56,-6.1 -5.45,-15 -2.48,-25.2 l 57.1,-196 c 7.27,-25 34.18,-46 58.78,-46 h 195.97 c 6.34,0 14.97,1.4 20.21,8.4 4.5,6.1 5.4,15 2.5,25.2 l -57.12,196 c -7.27,24.9 -34.18,46 -58.77,46 z m 289.18,-319.9 h -195.97 c -44.06,0 -88.58,34.2 -101.3,77.9 l -57.11,196 c -6.86,23.5 -3.37,46.9 9.58,64.2 12.47,16.6 32.73,26.1 55.62,26.1 h 196 c 44.06,0 88.57,-34.2 101.29,-77.9 l 57.1,-196 c 6.8,-23.6 3.4,-46.9 -9.6,-64.2 -12.5,-16.6 -32.7,-26.1 -55.61,-26.1"
         style="fill:currentColor;fill-opacity:1;fill-rule:nonzero;stroke:none"
         id="path238" />
      <path
         d="m 9285.76,17016.1 c -6.34,0 -14.96,-1.4 -20.18,-8.4 -4.56,-6.1 -5.45,-15 -2.48,-25.2 l 57.08,-196 c 7.27,-25 34.18,-46 58.77,-46 h 196 c 6.31,0 14.95,1.4 20.18,8.4 4.57,6.1 5.45,15 2.49,25.2 l -57.11,196 c -7.26,24.9 -34.17,46 -58.77,46 z m 289.19,-319.9 h -196 c -44.06,0 -88.58,34.2 -101.3,77.9 l -57.08,196 c -6.86,23.5 -3.38,47 9.58,64.2 12.46,16.6 32.73,26.1 55.61,26.1 h 195.98 c 44.07,0 88.58,-34.2 101.3,-77.9 l 57.11,-196 c 6.85,-23.6 3.37,-46.9 -9.59,-64.2 -12.45,-16.6 -32.72,-26.1 -55.61,-26.1"
         style="fill:currentColor;fill-opacity:1;fill-rule:nonzero;stroke:none"
         id="path240" />
      <path
         d="m 9825.31,16590.3 h 195.99 c 34.2,0 70.1,-27.8 80,-62 l 57.1,-196 c 10,-34.2 -9.7,-62 -43.9,-62 h -195.98 c -34.23,0 -70.07,27.8 -80.05,62 l -57.09,196 c -9.97,34.2 9.7,62 43.93,62"
         style="fill:#ffffff;fill-opacity:0;fill-rule:nonzero;stroke:none"
         id="path242" />
      <path
         d="m 9416.25,16590.3 h 195.99 c 34.23,0 70.07,-27.8 80.05,-62 l 57.09,-196 c 9.97,-34.2 -9.7,-62 -43.94,-62 h -195.98 c -34.24,0 -70.07,27.8 -80.04,62 l -57.1,196 c -9.97,34.2 9.7,62 43.93,62"
         style="fill:#ffffff;fill-opacity:0;fill-rule:nonzero;stroke:none"
         id="path244" />
      <path
         d="m 9955.82,16142.3 h 195.98 c 34.2,0 70.1,-27.7 80,-62 l 57.1,-195.9 c 10,-34.3 -9.7,-62 -43.9,-62 h -196 c -34.2,0 -70.05,27.7 -80.03,62 l -57.09,195.9 c -9.97,34.3 9.7,62 43.94,62"
         style="fill:#ffffff;fill-opacity:0;fill-rule:nonzero;stroke:none"
         id="path246" />
      <path
         d="m 9546.75,16142.3 h 195.99 c 34.23,0 70.07,-27.7 80.04,-62 l 57.09,-195.9 c 9.98,-34.3 -9.69,-62 -43.92,-62 h -195.99 c -34.24,0 -70.07,27.7 -80.04,62 l -57.09,195.9 c -9.98,34.3 9.69,62 43.92,62"
         style="fill:#ffffff;fill-opacity:0;fill-rule:nonzero;stroke:none"
         id="path248" />
      <path
         d="m 10086.3,15694.3 h 196 c 34.2,0 70.1,-27.7 80,-61.9 l 57.1,-196 c 10,-34.3 -9.7,-62 -43.9,-62 h -196 c -34.2,0 -70.1,27.7 -80,62 l -57.1,196 c -10,34.2 9.7,61.9 43.9,61.9"
         style="fill:#ffffff;fill-opacity:0;fill-rule:nonzero;stroke:none"
         id="path250" />
      <path
         d="m 9677.25,15694.3 h 195.99 c 34.23,0 70.07,-27.7 80.04,-61.9 l 57.12,-196 c 9.9,-34.3 -9.7,-62 -43.95,-62 h -195.99 c -34.23,0 -70.07,27.7 -80.04,62 l -57.09,196 c -9.98,34.2 9.69,61.9 43.92,61.9"
         style="fill:#ffffff;fill-opacity:0;fill-rule:nonzero;stroke:none"
         id="path252" />
      <path
         d="m 10694.6,15396.5 h 2259.3 l -602.3,2067.6 h -2259.3 z m 2288.8,-44.3 H 10678 c -9.9,0 -18.6,6.5 -21.3,16 l -615.2,2111.9 c -2,6.7 -0.6,13.9 3.5,19.5 4.2,5.5 10.8,8.8 17.8,8.8 h 2305.4 c 9.9,0 18.5,-6.5 21.3,-16 l 615.2,-2111.8 c 1.9,-6.7 0.6,-13.9 -3.5,-19.5 -4.2,-5.6 -10.8,-8.9 -17.8,-8.9"
         style="fill:currentColor;fill-opacity:1;fill-rule:nonzero;stroke:none"
         id="path254" />
      <path
         d="m 12577,15915.2 c -4.7,0 -9.5,1.5 -13.5,4.7 l -510.7,396 c -39.3,30.5 -87.3,44.3 -131.5,37.7 -35.1,-5.2 -65,-23 -84.3,-50.2 l -131.1,-184.4 c -17.3,-24.4 -43.7,-40.3 -74.5,-44.8 -36,-5.4 -74.8,5.5 -106.1,29.8 l -586.4,454.7 c -39.3,30.5 -87.2,44.3 -131.5,37.7 -35,-5.1 -65,-23 -84.3,-50.2 l -34.9,-49 c -7.1,-10 -20.9,-12.3 -30.9,-5.2 -9.9,7 -12.3,20.9 -5.2,30.8 l 34.8,49.1 c 26.5,37.1 66.9,61.4 114,68.4 56.1,8.3 116.3,-8.7 165.1,-46.6 l 586.4,-454.7 c 21.9,-16.9 48.3,-24.6 72.5,-21 13.3,2 31.8,8.2 44.9,26.6 l 131,184.5 c 26.4,37.1 66.9,61.4 114,68.4 56.1,8.3 116.3,-8.7 165.1,-46.6 l 510.7,-396 c 9.7,-7.5 11.5,-21.4 4,-31.1 -4.4,-5.6 -10.9,-8.6 -17.6,-8.6"
         style="fill:currentColor;fill-opacity:1;fill-rule:nonzero;stroke:none"
         id="path256" />
      <path
         d="m 11777.5,17150.1 c -60.3,0 -110.4,-22.5 -141.2,-63.5 -32.8,-43.8 -40.5,-103.5 -21.7,-168 39.2,-134.6 180.2,-244 314.3,-244 60.3,0 110.5,22.6 141.2,63.5 32.9,43.8 40.6,103.5 21.8,168.1 -39.2,134.5 -180.2,243.9 -314.4,243.9 z m 151.4,-519.8 c -152.4,0 -312.6,123.8 -356.9,275.9 -22.8,78.3 -12.5,151.8 28.9,207 39.3,52.4 102,81.2 176.6,81.2 152.5,0 312.6,-123.7 356.9,-275.8 22.8,-78.3 12.6,-151.8 -28.8,-207 -39.4,-52.5 -102.1,-81.3 -176.7,-81.3"
         style="fill:currentColor;fill-opacity:1;fill-rule:nonzero;stroke:none"
         id="path258" />
      <path
         d="M 8282.38,16837 H 11053 c 102.6,0 209.9,-83.2 239.8,-185.7 l 542.8,-1863.4 c 29.9,-102.6 -29,-185.8 -131.6,-185.8 H 8933.42 c -102.59,0 -209.97,83.2 -239.85,185.8 l -542.82,1863.4 c -29.89,102.5 29.04,185.7 131.63,185.7"
         style="fill:#ffffff;fill-opacity:0;fill-rule:nonzero;stroke:none"
         id="path260" />
      <path
         d="m 8282.38,16814.9 c -41.06,0 -75.08,-15.3 -95.83,-42.9 -22.25,-29.7 -27.4,-70.4 -14.53,-114.5 l 542.81,-1863.4 c 27.28,-93.7 125.33,-169.8 218.58,-169.8 H 11704 c 41.1,0 75.1,15.2 95.8,42.9 22.3,29.6 27.5,70.3 14.6,114.5 l -542.8,1863.4 c -27.3,93.6 -125.4,169.8 -218.6,169.8 z M 11704,14580 H 8933.41 c -111.57,0 -228.7,90.4 -261.11,201.7 l -542.81,1863.4 c -16.87,57.9 -9.19,112.4 21.63,153.5 29.31,39 75.93,60.6 131.26,60.6 H 11053 c 111.6,0 228.7,-90.5 261.1,-201.7 l 542.8,-1863.4 c 16.9,-57.9 9.2,-112.5 -21.6,-153.5 -29.3,-39.1 -75.9,-60.6 -131.3,-60.6"
         style="fill:currentColor;fill-opacity:1;fill-rule:nonzero;stroke:none"
         id="path262" />
      <path
         d="m 11313.5,14712.1 c -9.6,0 -18.4,6.3 -21.3,16 l -574,1970.5 c -3.4,11.8 3.4,24.1 15.1,27.5 11.7,3.4 24,-3.4 27.4,-15.1 l 574.1,-1970.5 c 3.4,-11.8 -3.4,-24 -15.1,-27.5 -2.1,-0.6 -4.2,-0.9 -6.2,-0.9"
         style="fill:currentColor;fill-opacity:1;fill-rule:nonzero;stroke:none"
         id="path264" />
      <path
         d="m 8977.29,14929.5 h 2061.21 c 33.3,0 52.3,27 42.7,60.2 l -425.3,1459.7 c -9.7,33.3 -44.4,60.2 -77.6,60.2 H 8517.01 c -33.22,0 -52.3,-26.9 -42.62,-60.2 l 425.24,-1459.7 c 9.68,-33.2 44.45,-60.2 77.66,-60.2"
         style="fill:currentColor;fill-opacity:1;fill-rule:nonzero;stroke:none"
         id="path266" />
      <path
         d="m 11175.6,15725.8 c 21,-72.2 96.5,-130.9 168.3,-130.9 30.9,0 56.5,11.4 72,32 16.7,22.3 20.5,53 10.7,86.5 -21,72.1 -96.5,130.8 -168.3,130.8 -30.9,0 -56.5,-11.4 -72,-32 -16.7,-22.3 -20.5,-53 -10.7,-86.4 z m 168.3,-175.2 c -91.7,0 -184.3,71.5 -210.9,162.8 v 0 c -13.5,46.5 -7,92.2 17.9,125.4 24.1,32 62.2,49.7 107.4,49.7 91.7,0 184.3,-71.5 210.8,-162.7 13.6,-46.6 7.1,-92.3 -17.8,-125.4 -24.1,-32.1 -62.2,-49.8 -107.4,-49.8"
         style="fill:currentColor;fill-opacity:1;fill-rule:nonzero;stroke:none"
         id="path268" />
      <path
         d="m 11212.5,16347.3 c -9.6,0 -18.5,6.3 -21.3,16 l -40.3,138.5 c -6.1,21 -29.6,39.5 -50.3,39.5 h -108.1 c -12.3,0 -22.2,9.9 -22.2,22.1 0,12.3 9.9,22.2 22.2,22.2 h 108.1 c 40.4,0 81.2,-31.4 92.8,-71.4 l 40.4,-138.5 c 3.4,-11.8 -3.4,-24.1 -15.1,-27.5 -2.1,-0.6 -4.2,-0.9 -6.2,-0.9"
         style="fill:currentColor;fill-opacity:1;fill-rule:nonzero;stroke:none"
         id="path270" />
      <path
         d="m 11261.2,15990 h -108.1 c -40.4,0 -81.2,31.3 -92.8,71.3 l -88,302 c -3.4,11.7 3.3,24 15.1,27.5 11.7,3.4 24,-3.4 27.4,-15.1 l 88,-302 c 6.1,-21 29.6,-39.4 50.3,-39.4 h 108.1 c 5.1,0 12.1,1.1 16.1,6.6 3.7,4.8 4.3,12.1 1.9,20.4 -3.4,11.8 3.3,24.1 15.1,27.5 11.7,3.4 24,-3.4 27.4,-15.1 6.4,-21.7 3.1,-43.4 -8.9,-59.4 -11.6,-15.5 -30.4,-24.3 -51.6,-24.3"
         style="fill:currentColor;fill-opacity:1;fill-rule:nonzero;stroke:none"
         id="path272" />
      <path
         d="m 11157.1,16347.3 h -108.2 c -12.2,0 -22.1,10 -22.1,22.2 0,12.2 9.9,22.1 22.1,22.1 h 108.2 c 12.3,0 22.2,-9.9 22.2,-22.1 0,-12.2 -9.9,-22.2 -22.2,-22.2"
         style="fill:currentColor;fill-opacity:1;fill-rule:nonzero;stroke:none"
         id="path274" />
      <path
         d="m 11187.5,16243.1 h -108.2 c -12.2,0 -22.1,9.9 -22.1,22.1 0,12.3 9.9,22.2 22.1,22.2 h 108.2 c 12.2,0 22.1,-9.9 22.1,-22.2 0,-12.2 -9.9,-22.1 -22.1,-22.1"
         style="fill:currentColor;fill-opacity:1;fill-rule:nonzero;stroke:none"
         id="path276" />
      <path
         d="m 11592.3,14853.5 h -108.2 c -40.4,0 -81.1,31.4 -92.8,71.4 l -24.2,83 c -3.4,11.8 3.4,24 15.1,27.5 11.7,3.4 24,-3.4 27.5,-15.1 l 24.1,-83 c 6.2,-21 29.7,-39.5 50.3,-39.5 h 108.2 c 12.2,0 22.1,-9.9 22.1,-22.1 0,-12.2 -9.9,-22.2 -22.1,-22.2"
         style="fill:currentColor;fill-opacity:1;fill-rule:nonzero;stroke:none"
         id="path278" />
      <path
         d="m 11601.3,15012.8 c -9.6,0 -18.5,6.3 -21.3,16 l -98.1,336.6 c -6.1,21 -29.6,39.4 -50.2,39.4 h -108.2 c -5.1,0 -12.1,-1.1 -16.1,-6.5 -3.7,-4.9 -4.3,-12.1 -1.9,-20.5 l 19.1,-65.6 c 3.4,-11.7 -3.3,-24 -15.1,-27.4 -11.8,-3.5 -24,3.3 -27.4,15 l -19.1,65.6 c -6.4,21.8 -3.1,43.4 8.9,59.4 11.6,15.5 30.4,24.3 51.6,24.3 h 108.2 c 40.3,0 81.1,-31.3 92.8,-71.3 l 98,-336.6 c 3.5,-11.8 -3.3,-24.1 -15,-27.5 -2.1,-0.6 -4.2,-0.9 -6.2,-0.9"
         style="fill:currentColor;fill-opacity:1;fill-rule:nonzero;stroke:none"
         id="path280" />
      <path
         d="m 11460.8,15304.7 h -145.3 c -12.2,0 -22.1,10 -22.1,22.2 0,12.2 9.9,22.1 22.1,22.1 h 145.3 c 12.3,0 22.2,-9.9 22.2,-22.1 0,-12.2 -9.9,-22.2 -22.2,-22.2"
         style="fill:currentColor;fill-opacity:1;fill-rule:nonzero;stroke:none"
         id="path282" />
      <path
         d="M 11500.3,15169.2 H 11355 c -12.2,0 -22.2,9.9 -22.2,22.1 0,12.3 10,22.2 22.2,22.2 h 145.3 c 12.3,0 22.2,-9.9 22.2,-22.2 0,-12.2 -9.9,-22.1 -22.2,-22.1"
         style="fill:currentColor;fill-opacity:1;fill-rule:nonzero;stroke:none"
         id="path284" />
      <path
         d="m 12083.4,18180.5 h 1052.9 c 62.6,0 128.2,-50.8 146.4,-113.4 l 193.4,-664 c 18.3,-62.6 -17.7,-113.4 -80.4,-113.4 h -1052.8 c -62.7,0 -128.2,50.8 -146.5,113.4 l -193.4,664 c -18.2,62.6 17.7,113.4 80.4,113.4"
         style="fill:#ffffff;fill-opacity:0;fill-rule:nonzero;stroke:none"
         id="path286" />
      <path
         d="m 12083.4,18158.3 c -22.3,0 -40.6,-8.1 -51.6,-22.7 -11.9,-15.9 -14.6,-38 -7.5,-62.3 l 193.4,-664 c 15.4,-52.8 72.7,-97.4 125.2,-97.4 h 1052.8 c 22.3,0 40.6,8 51.6,22.7 12,15.9 14.6,38 7.5,62.3 l -193.4,664 c -15.4,52.8 -72.7,97.4 -125.1,97.4 z m 1312.3,-890.7 h -1052.8 c -73,0 -146.6,56.8 -167.7,129.3 l -193.5,664 c -10.9,37.4 -5.6,74.4 14.6,101.3 19.6,26.1 50.5,40.4 87.1,40.4 h 1052.9 c 72.9,0 146.5,-56.8 167.7,-129.3 l 193.4,-664 c 10.9,-37.5 5.6,-74.4 -14.6,-101.3 -19.6,-26.1 -50.5,-40.4 -87.1,-40.4"
         style="fill:currentColor;fill-opacity:1;fill-rule:nonzero;stroke:none"
         id="path288" />
      <path
         d="m 13428.1,17897.1 c -9.6,0 -18.4,6.3 -21.3,15.9 l -16.1,55.3 c -3.4,11.8 3.4,24.1 15.1,27.5 11.8,3.5 24,-3.3 27.5,-15.1 l 16.1,-55.3 c 3.4,-11.7 -3.4,-24 -15.1,-27.5 -2.1,-0.5 -4.2,-0.8 -6.2,-0.8"
         style="fill:currentColor;fill-opacity:1;fill-rule:nonzero;stroke:none"
         id="path290" />
      <path
         d="m 12124,17980.8 c -9.6,0 -18.4,6.3 -21.2,16 l -48.5,166.4 c -10.9,37.5 -5.6,74.4 14.6,101.3 19.5,26.1 50.4,40.5 87,40.5 h 1052.9 c 72.9,0 146.6,-56.9 167.7,-129.4 l 34.5,-118.6 c 3.5,-11.7 -3.3,-24 -15,-27.4 -11.8,-3.5 -24.1,3.3 -27.5,15 l -34.5,118.6 c -15.4,52.8 -72.8,97.5 -125.2,97.5 h -1052.9 c -22.3,0 -40.6,-8.1 -51.6,-22.8 -11.9,-15.8 -14.6,-38 -7.5,-62.3 l 48.5,-166.4 c 3.4,-11.8 -3.3,-24 -15.1,-27.5 -2,-0.6 -4.1,-0.9 -6.2,-0.9"
         style="fill:currentColor;fill-opacity:1;fill-rule:nonzero;stroke:none"
         id="path292" />
      <path
         d="m 12202.1,17712.9 c -9.6,0 -18.5,6.3 -21.3,16 l -45.5,156.3 c -3.4,11.7 3.3,24 15.1,27.5 11.7,3.4 24,-3.4 27.4,-15.1 l 45.5,-156.3 c 3.5,-11.8 -3.3,-24.1 -15,-27.5 -2.1,-0.6 -4.2,-0.9 -6.2,-0.9"
         style="fill:currentColor;fill-opacity:1;fill-rule:nonzero;stroke:none"
         id="path294" />
      <path
         d="m 10823.7,15208.8 c -5.7,0 -11.3,2.2 -15.7,6.5 l -996.12,996.2 c -8.66,8.6 -8.66,22.6 0,31.3 8.65,8.6 22.67,8.6 31.32,0 l 996.2,-996.2 c 8.6,-8.6 8.6,-22.6 0,-31.3 -4.4,-4.3 -10,-6.5 -15.7,-6.5"
         style="fill:#ffffff;fill-opacity:0;fill-rule:nonzero;stroke:none"
         id="path296" />
      <path
         d="m 10086.3,15672.2 c -5.7,0 -11.3,2.2 -15.7,6.5 l -576.38,576.4 c -8.65,8.7 -8.65,22.7 0,31.3 8.66,8.7 22.67,8.7 31.32,0 L 10102,15710 c 8.6,-8.6 8.6,-22.7 0,-31.3 -4.4,-4.3 -10,-6.5 -15.7,-6.5"
         style="fill:#ffffff;fill-opacity:0;fill-rule:nonzero;stroke:none"
         id="path298" />
      <path
         d="m 14220.1,16920.5 c -9.3,0 -18,5.8 -21.1,15.1 -100.5,302.1 -427.8,547.9 -729.4,547.9 h -369.1 c -319.2,0 -665.3,259.4 -771.5,578.2 -3.8,11.6 2.5,24.1 14.1,28 11.6,3.8 24.2,-2.4 28,-14 100.6,-302.1 427.8,-547.9 729.4,-547.9 h 369.1 c 319.2,0 665.4,-259.4 771.5,-578.2 3.8,-11.6 -2.4,-24.1 -14,-28 -2.4,-0.8 -4.7,-1.1 -7,-1.1"
         style="fill:currentColor;fill-opacity:1;fill-rule:nonzero;stroke:none"
         id="path300" />
      <path
         d="m 12319.6,18039.8 c 35.1,-26.4 77.9,-26.4 95.4,0 17.6,26.3 3.4,69 -31.7,95.3 -35.1,26.4 -77.8,26.4 -95.4,0 -17.6,-26.3 -3.4,-69 31.7,-95.3"
         style="fill:#ffffff;fill-opacity:0;fill-rule:nonzero;stroke:none"
         id="path302" />
      <path
         d="m 12329.2,18132.8 c -2.4,0 -4.8,-0.2 -7,-0.6 -7.2,-1.3 -12.6,-4.4 -15.9,-9.4 -9.5,-14.3 -0.9,-44.6 26.6,-65.3 15.7,-11.7 33.7,-17.2 47.8,-14.8 7.2,1.2 12.6,4.4 15.9,9.3 9.5,14.4 1,44.7 -26.6,65.4 -13.2,9.9 -27.9,15.4 -40.8,15.4 z m 44.6,-135 c -22.6,0 -46.5,8.5 -67.5,24.2 -45,33.8 -61.2,88.9 -36.8,125.4 10,15.1 26.1,25.2 45.2,28.4 26.5,4.6 56.3,-3.8 81.9,-22.9 45,-33.9 61.2,-88.9 36.8,-125.5 -10,-15 -26.1,-25.1 -45.2,-28.4 -4.7,-0.8 -9.6,-1.2 -14.4,-1.2"
         style="fill:currentColor;fill-opacity:1;fill-rule:nonzero;stroke:none"
         id="path304" />
      <path
         d="m 14191.3,16897.3 c 35.1,-26.4 77.8,-26.4 95.4,0 17.5,26.3 3.3,69 -31.8,95.4 -35.1,26.3 -77.8,26.3 -95.4,0 -17.5,-26.4 -3.3,-69.1 31.8,-95.4"
         style="fill:#ffffff;fill-opacity:0;fill-rule:nonzero;stroke:none"
         id="path306" />
      <path
         d="m 14200.8,16990.3 c -2.4,0 -4.7,-0.2 -7,-0.6 -7.2,-1.2 -12.5,-4.4 -15.8,-9.3 -9.6,-14.3 -1,-44.7 26.6,-65.4 v 0 c 15.6,-11.7 33.6,-17.2 47.8,-14.8 7.2,1.3 12.5,4.4 15.8,9.4 9.6,14.3 1,44.6 -26.6,65.3 -13.1,9.9 -27.9,15.4 -40.8,15.4 z m 44.6,-134.9 c -22.5,0 -46.4,8.4 -67.4,24.2 v 0 c -45,33.7 -61.2,88.8 -36.9,125.3 10.1,15.1 26.1,25.2 45.3,28.5 26.4,4.5 56.3,-3.9 81.8,-23 45.1,-33.8 61.3,-88.9 36.9,-125.4 -10,-15.1 -26.1,-25.2 -45.3,-28.4 -4.7,-0.8 -9.5,-1.2 -14.4,-1.2"
         style="fill:currentColor;fill-opacity:1;fill-rule:nonzero;stroke:none"
         id="path308" />
      <path
         d="m 13141.8,17538.3 76.7,112.3 c 13.4,19.7 44.7,20.6 69.9,2 l 143.9,-106.2 c 25.2,-18.6 34.8,-49.7 21.4,-69.3 l -76.6,-112.4 c -13.5,-19.6 -44.8,-20.5 -70,-1.9 l -143.9,106.2 c -25.2,18.6 -34.8,49.6 -21.4,69.3"
         style="fill:#ffffff;fill-opacity:0;fill-rule:nonzero;stroke:none"
         id="path310" />
      <path
         d="m 13160.1,17525.8 c -5.8,-8.5 -0.1,-26.9 16.2,-39 l 144,-106.2 c 9.4,-6.9 20.3,-10.2 29.1,-8.7 4.3,0.7 7.5,2.5 9.4,5.3 l 76.6,112.4 c 5.8,8.4 0.1,26.9 -16.2,38.9 l -144,106.3 c -9.4,6.9 -20.2,10.1 -29.1,8.7 -4.3,-0.8 -7.4,-2.6 -9.3,-5.4 z m 185,-198.6 c -17.4,0 -35.5,6.2 -51.1,17.8 l -144,106.2 c -35.2,26 -46.8,69.7 -26.5,99.6 l 76.7,112.3 c 8.7,12.8 22.3,21.3 38.5,24 20.7,3.6 43.7,-2.5 62.8,-16.7 l 144,-106.2 c 35.2,-26 46.9,-69.8 26.5,-99.6 l -76.6,-112.3 c -8.7,-12.8 -22.4,-21.3 -38.6,-24.1 -3.8,-0.6 -7.8,-1 -11.7,-1"
         style="fill:currentColor;fill-opacity:1;fill-rule:nonzero;stroke:none"
         id="path312" />
      <path
         d="m 13399.3,16807.7 c -22.8,68.4 14.2,123.8 82.6,123.8 68.4,0 142.4,-55.4 165.1,-123.8 22.8,-68.4 -14.2,-123.9 -82.6,-123.9 -68.4,0 -142.3,55.5 -165.1,123.9 z m 84.9,-357.3 h 315.9 c 14.9,0 25.5,8.8 27,22.4 l 72.3,239.1 c 1.1,10.1 -2.9,21.7 -11.1,31.7 l -558,745.6 c -23.2,28.5 -63.8,28.5 -68,0 l -61.6,-745.6 c -1.5,-10 2.1,-21.6 10,-31.7 l 231.5,-239.1 c 10.6,-13.6 27,-22.4 42,-22.4"
         style="fill:#ffffff;fill-opacity:0;fill-rule:nonzero;stroke:none"
         id="path314" />
      <path
         d="m 13420.3,16814.7 c 19.7,-58.9 85.6,-108.7 144.1,-108.7 24.6,0 44.4,8.8 56,24.8 12.7,17.7 14.7,42.5 5.6,69.9 -19.6,58.9 -85.6,108.7 -144.1,108.7 -24.5,0 -44.4,-8.8 -55.9,-24.8 -12.8,-17.7 -14.8,-42.5 -5.7,-69.9 z m 144.1,-153 c -78.4,0 -160.2,61 -186.1,139 -13.5,40.6 -9.2,80.7 11.8,109.8 20,27.8 52.7,43.2 91.8,43.2 78.4,0 160.2,-61.1 186.2,-139 13.5,-40.7 9.2,-80.7 -11.8,-109.8 -20.1,-27.9 -52.7,-43.2 -91.9,-43.2 z m -336.9,64.6 230.6,-238.1 c 0.6,-0.5 1.1,-1.1 1.6,-1.8 6.3,-8.2 16.4,-13.9 24.5,-13.9 h 315.9 c 4.7,0 4.9,1.6 5,2.8 0.2,1.3 0.4,2.6 0.8,3.9 l 71.6,236.5 c -0.2,3.3 -1.9,8.5 -6.3,13.9 l -558.7,746.4 c -8.7,10.7 -20.8,13.6 -26.5,12.1 -1.5,-0.4 -1.6,-0.6 -1.8,-2.2 l -61.5,-744.1 c -0.5,-4.2 0.5,-9.5 4.8,-15.5 z m 572.6,-298.1 h -315.9 c -21.5,0 -43.8,11.5 -58.7,30 l -230.7,238.3 c -0.6,0.6 -1.1,1.2 -1.6,1.8 -11.6,14.9 -16.8,32.6 -14.5,48.6 l 61.5,744.2 c 3,20.3 15.7,34.6 34.1,39.7 24.7,6.8 54.1,-4.3 73.1,-27.6 l 558.7,-746.3 c 11.3,-13.9 17.1,-31.4 15.3,-47.4 -0.1,-1.4 -0.4,-2.7 -0.8,-4 l -71.7,-237.4 c -3.8,-23.6 -23.5,-39.9 -48.8,-39.9"
         style="fill:currentColor;fill-opacity:1;fill-rule:nonzero;stroke:none"
         id="path316" />
      <path
         d="m 13603.1,16189.7 h 251.6 c 46.1,0 71,37.4 55.7,83.5 l -9.7,29.1 c -15.4,46.1 -65.2,83.5 -111.3,83.5 h -251.5 c -46.1,0 -71.1,-37.4 -55.7,-83.5 l 9.7,-29.1 c 15.3,-46.1 65.1,-83.5 111.2,-83.5"
         style="fill:currentColor;fill-opacity:1;fill-rule:nonzero;stroke:none"
         id="path318" />
      <path
         d="m 13448.6,17009.4 c -9.2,0 -17.8,5.8 -20.9,15 -152.7,449.1 -152.7,449.1 -144,461.3 l 18,-12.9 17.3,-13.8 -17.3,13.8 21.8,3.7 c 4,-17.7 89.6,-271.5 146.1,-437.8 4,-11.6 -2.3,-24.1 -13.8,-28.1 -2.4,-0.8 -4.8,-1.2 -7.2,-1.2"
         style="fill:currentColor;fill-opacity:1;fill-rule:nonzero;stroke:none"
         id="path320" />
    </g>
  </g>
</svg>
